<?xml version="1.0" encoding="UTF-8"?>
<!DOCTYPE svg PUBLIC "-//W3C//DTD SVG 1.1//EN"
    "http://www.w3.org/Graphics/SVG/1.1/DTD/svg11.dtd"><svg xmlns="http://www.w3.org/2000/svg" height="400" width="13750" xmlns:xlink="http://www.w3.org/1999/xlink" version="1.11.1"><rect height="400" width="50" fill="#7fbf55" x="0"/><rect height="400" width="50" fill="#ff1f00" x="50"/><rect height="400" width="50" fill="#55bfaa" x="100"/><rect height="400" width="50" fill="#5500ff" x="150"/><rect height="400" width="50" fill="#d43faa" x="200"/><rect height="400" width="50" fill="#5500ff" x="250"/><rect height="400" width="50" fill="#5500ff" x="300"/><rect height="400" width="50" fill="#550000" x="350"/><rect height="400" width="50" fill="#ff5fff" x="400"/><rect height="400" width="50" fill="#7fbfaa" x="450"/><rect height="400" width="50" fill="#d4ff00" x="500"/><rect height="400" width="50" fill="#5500ff" x="550"/><rect height="400" width="50" fill="#aadfaa" x="600"/><rect height="400" width="50" fill="#5500ff" x="650"/><rect height="400" width="50" fill="#7f7f55" x="700"/><rect height="400" width="50" fill="#aabf55" x="750"/><rect height="400" width="50" fill="#550000" x="800"/><rect height="400" width="50" fill="#2a3f55" x="850"/><rect height="400" width="50" fill="#aa0000" x="900"/><rect height="400" width="50" fill="#55bfaa" x="950"/><rect height="400" width="50" fill="#5500ff" x="1000"/><rect height="400" width="50" fill="#ffdf00" x="1050"/><rect height="400" width="50" fill="#aa3faa" x="1100"/><rect height="400" width="50" fill="#7f7f55" x="1150"/><rect height="400" width="50" fill="#d4dfff" x="1200"/><rect height="400" width="50" fill="#550000" x="1250"/><rect height="400" width="50" fill="#ff5fff" x="1300"/><rect height="400" width="50" fill="#7fbfaa" x="1350"/><rect height="400" width="50" fill="#d4ff00" x="1400"/><rect height="400" width="50" fill="#7fdfff" x="1450"/><rect height="400" width="50" fill="#5500ff" x="1500"/><rect height="400" width="50" fill="#2a5faa" x="1550"/><rect height="400" width="50" fill="#5500ff" x="1600"/><rect height="400" width="50" fill="#2a1fff" x="1650"/><rect height="400" width="50" fill="#d47fff" x="1700"/><rect height="400" width="50" fill="#d43faa" x="1750"/><rect height="400" width="50" fill="#7f7f55" x="1800"/><rect height="400" width="50" fill="#aa3faa" x="1850"/><rect height="400" width="50" fill="#5500ff" x="1900"/><rect height="400" width="50" fill="#d43faa" x="1950"/><rect height="400" width="50" fill="#5500ff" x="2000"/><rect height="400" width="50" fill="#5500ff" x="2050"/><rect height="400" width="50" fill="#550000" x="2100"/><rect height="400" width="50" fill="#ff5fff" x="2150"/><rect height="400" width="50" fill="#7fbfaa" x="2200"/><rect height="400" width="50" fill="#d4ff00" x="2250"/><rect height="400" width="50" fill="#ff7fff" x="2300"/><rect height="400" width="50" fill="#d43f55" x="2350"/><rect height="400" width="50" fill="#d49f55" x="2400"/><rect height="400" width="50" fill="#d4ff00" x="2450"/><rect height="400" width="50" fill="#ff5fff" x="2500"/><rect height="400" width="50" fill="#ff1f00" x="2550"/><rect height="400" width="50" fill="#7fbf55" x="2600"/><rect height="400" width="50" fill="#7fbf55" x="2650"/><rect height="400" width="50" fill="#ff0000" x="2700"/><rect height="400" width="50" fill="#d49f55" x="2750"/><rect height="400" width="50" fill="#c0dcc0" x="2800"/><rect height="400" width="50" fill="#ff5fff" x="2850"/><rect height="400" width="50" fill="#d49f55" x="2900"/><rect height="400" width="50" fill="#7fbfaa" x="2950"/><rect height="400" width="50" fill="#ff1f00" x="3000"/><rect height="400" width="50" fill="#d4ff00" x="3050"/><rect height="400" width="50" fill="#ff7fff" x="3100"/><rect height="400" width="50" fill="#d45fff" x="3150"/><rect height="400" width="50" fill="#ff1f00" x="3200"/><rect height="400" width="50" fill="#00ff55" x="3250"/><rect height="400" width="50" fill="#ff1f00" x="3300"/><rect height="400" width="50" fill="#7fbf55" x="3350"/><rect height="400" width="50" fill="#2a3f55" x="3400"/><rect height="400" width="50" fill="#550000" x="3450"/><rect height="400" width="50" fill="#ff0000" x="3500"/><rect height="400" width="50" fill="#d49f55" x="3550"/><rect height="400" width="50" fill="#c0dcc0" x="3600"/><rect height="400" width="50" fill="#ff5fff" x="3650"/><rect height="400" width="50" fill="#d49f55" x="3700"/><rect height="400" width="50" fill="#7fbfaa" x="3750"/><rect height="400" width="50" fill="#ff1f00" x="3800"/><rect height="400" width="50" fill="#5500ff" x="3850"/><rect height="400" width="50" fill="#2a5faa" x="3900"/><rect height="400" width="50" fill="#d43faa" x="3950"/><rect height="400" width="50" fill="#5500ff" x="4000"/><rect height="400" width="50" fill="#5500ff" x="4050"/><rect height="400" width="50" fill="#5500ff" x="4100"/><rect height="400" width="50" fill="#5500ff" x="4150"/><rect height="400" width="50" fill="#aa0000" x="4200"/><rect height="400" width="50" fill="#2a3f55" x="4250"/><rect height="400" width="50" fill="#2a3f55" x="4300"/><rect height="400" width="50" fill="#55bfaa" x="4350"/><rect height="400" width="50" fill="#5500ff" x="4400"/><rect height="400" width="50" fill="#aadfaa" x="4450"/><rect height="400" width="50" fill="#5500ff" x="4500"/><rect height="400" width="50" fill="#ff7fff" x="4550"/><rect height="400" width="50" fill="#d43fff" x="4600"/><rect height="400" width="50" fill="#ff7fff" x="4650"/><rect height="400" width="50" fill="#d47fff" x="4700"/><rect height="400" width="50" fill="#d43faa" x="4750"/><rect height="400" width="50" fill="#5500ff" x="4800"/><rect height="400" width="50" fill="#5500ff" x="4850"/><rect height="400" width="50" fill="#5500ff" x="4900"/><rect height="400" width="50" fill="#5500ff" x="4950"/><rect height="400" width="50" fill="#aabf55" x="5000"/><rect height="400" width="50" fill="#2a3f55" x="5050"/><rect height="400" width="50" fill="#d45fff" x="5100"/><rect height="400" width="50" fill="#7f7f55" x="5150"/><rect height="400" width="50" fill="#7f3fff" x="5200"/><rect height="400" width="50" fill="#7f7f55" x="5250"/><rect height="400" width="50" fill="#ff1f00" x="5300"/><rect height="400" width="50" fill="#aa0000" x="5350"/><rect height="400" width="50" fill="#5500ff" x="5400"/><rect height="400" width="50" fill="#aadfaa" x="5450"/><rect height="400" width="50" fill="#5500ff" x="5500"/><rect height="400" width="50" fill="#d45fff" x="5550"/><rect height="400" width="50" fill="#aa0000" x="5600"/><rect height="400" width="50" fill="#00ff55" x="5650"/><rect height="400" width="50" fill="#2abfaa" x="5700"/><rect height="400" width="50" fill="#d43faa" x="5750"/><rect height="400" width="50" fill="#5500ff" x="5800"/><rect height="400" width="50" fill="#5500ff" x="5850"/><rect height="400" width="50" fill="#5500ff" x="5900"/><rect height="400" width="50" fill="#5500ff" x="5950"/><rect height="400" width="50" fill="#5500ff" x="6000"/><rect height="400" width="50" fill="#5500ff" x="6050"/><rect height="400" width="50" fill="#550000" x="6100"/><rect height="400" width="50" fill="#ff5fff" x="6150"/><rect height="400" width="50" fill="#7fbfaa" x="6200"/><rect height="400" width="50" fill="#d4ff00" x="6250"/><rect height="400" width="50" fill="#ff7fff" x="6300"/><rect height="400" width="50" fill="#d43f55" x="6350"/><rect height="400" width="50" fill="#d49f55" x="6400"/><rect height="400" width="50" fill="#d4ff00" x="6450"/><rect height="400" width="50" fill="#ff5fff" x="6500"/><rect height="400" width="50" fill="#ff1f00" x="6550"/><rect height="400" width="50" fill="#7fbf55" x="6600"/><rect height="400" width="50" fill="#7fbf55" x="6650"/><rect height="400" width="50" fill="#ff7fff" x="6700"/><rect height="400" width="50" fill="#7fbf55" x="6750"/><rect height="400" width="50" fill="#7f7f55" x="6800"/><rect height="400" width="50" fill="#800080" x="6850"/><rect height="400" width="50" fill="#ff7fff" x="6900"/><rect height="400" width="50" fill="#d49f55" x="6950"/><rect height="400" width="50" fill="#d45fff" x="7000"/><rect height="400" width="50" fill="#d45fff" x="7050"/><rect height="400" width="50" fill="#2adfff" x="7100"/><rect height="400" width="50" fill="#ffff00" x="7150"/><rect height="400" width="50" fill="#7f7f55" x="7200"/><rect height="400" width="50" fill="#7fbf55" x="7250"/><rect height="400" width="50" fill="#d45fff" x="7300"/><rect height="400" width="50" fill="#2abf00" x="7350"/><rect height="400" width="50" fill="#2a3f55" x="7400"/><rect height="400" width="50" fill="#2a3f55" x="7450"/><rect height="400" width="50" fill="#7fbf55" x="7500"/><rect height="400" width="50" fill="#d4ff00" x="7550"/><rect height="400" width="50" fill="#5500ff" x="7600"/><rect height="400" width="50" fill="#d45fff" x="7650"/><rect height="400" width="50" fill="#aa0000" x="7700"/><rect height="400" width="50" fill="#00ff55" x="7750"/><rect height="400" width="50" fill="#5500ff" x="7800"/><rect height="400" width="50" fill="#2abf55" x="7850"/><rect height="400" width="50" fill="#aa7f00" x="7900"/><rect height="400" width="50" fill="#7f7f55" x="7950"/><rect height="400" width="50" fill="#55bfaa" x="8000"/><rect height="400" width="50" fill="#d43f55" x="8050"/><rect height="400" width="50" fill="#5500ff" x="8100"/><rect height="400" width="50" fill="#550000" x="8150"/><rect height="400" width="50" fill="#ff5fff" x="8200"/><rect height="400" width="50" fill="#7fbfaa" x="8250"/><rect height="400" width="50" fill="#d4ff00" x="8300"/><rect height="400" width="50" fill="#ff7fff" x="8350"/><rect height="400" width="50" fill="#d43f55" x="8400"/><rect height="400" width="50" fill="#d49f55" x="8450"/><rect height="400" width="50" fill="#d4ff00" x="8500"/><rect height="400" width="50" fill="#ff5fff" x="8550"/><rect height="400" width="50" fill="#ff1f00" x="8600"/><rect height="400" width="50" fill="#7fbf55" x="8650"/><rect height="400" width="50" fill="#7fbf55" x="8700"/><rect height="400" width="50" fill="#ff0000" x="8750"/><rect height="400" width="50" fill="#d49f55" x="8800"/><rect height="400" width="50" fill="#c0dcc0" x="8850"/><rect height="400" width="50" fill="#ff5fff" x="8900"/><rect height="400" width="50" fill="#d49f55" x="8950"/><rect height="400" width="50" fill="#7fbfaa" x="9000"/><rect height="400" width="50" fill="#ff1f00" x="9050"/><rect height="400" width="50" fill="#d4ff00" x="9100"/><rect height="400" width="50" fill="#d47fff" x="9150"/><rect height="400" width="50" fill="#d43faa" x="9200"/><rect height="400" width="50" fill="#5500ff" x="9250"/><rect height="400" width="50" fill="#5500ff" x="9300"/><rect height="400" width="50" fill="#5500ff" x="9350"/><rect height="400" width="50" fill="#5500ff" x="9400"/><rect height="400" width="50" fill="#5500ff" x="9450"/><rect height="400" width="50" fill="#5500ff" x="9500"/><rect height="400" width="50" fill="#5500ff" x="9550"/><rect height="400" width="50" fill="#5500ff" x="9600"/><rect height="400" width="50" fill="#00df55" x="9650"/><rect height="400" width="50" fill="#5500ff" x="9700"/><rect height="400" width="50" fill="#c0dcc0" x="9750"/><rect height="400" width="50" fill="#d49f55" x="9800"/><rect height="400" width="50" fill="#800080" x="9850"/><rect height="400" width="50" fill="#d49f55" x="9900"/><rect height="400" width="50" fill="#7fbf55" x="9950"/><rect height="400" width="50" fill="#00bf55" x="10000"/><rect height="400" width="50" fill="#7f7f55" x="10050"/><rect height="400" width="50" fill="#aa3faa" x="10100"/><rect height="400" width="50" fill="#d4ff00" x="10150"/><rect height="400" width="50" fill="#55bfaa" x="10200"/><rect height="400" width="50" fill="#d49f55" x="10250"/><rect height="400" width="50" fill="#7fbf55" x="10300"/><rect height="400" width="50" fill="#7fbf55" x="10350"/><rect height="400" width="50" fill="#d43faa" x="10400"/><rect height="400" width="50" fill="#5500ff" x="10450"/><rect height="400" width="50" fill="#5500ff" x="10500"/><rect height="400" width="50" fill="#5500ff" x="10550"/><rect height="400" width="50" fill="#5500ff" x="10600"/><rect height="400" width="50" fill="#5500ff" x="10650"/><rect height="400" width="50" fill="#5500ff" x="10700"/><rect height="400" width="50" fill="#5500ff" x="10750"/><rect height="400" width="50" fill="#5500ff" x="10800"/><rect height="400" width="50" fill="#5500ff" x="10850"/><rect height="400" width="50" fill="#5500ff" x="10900"/><rect height="400" width="50" fill="#7fbfaa" x="10950"/><rect height="400" width="50" fill="#d43f55" x="11000"/><rect height="400" width="50" fill="#c0dcc0" x="11050"/><rect height="400" width="50" fill="#7f7f55" x="11100"/><rect height="400" width="50" fill="#d45fff" x="11150"/><rect height="400" width="50" fill="#d43faa" x="11200"/><rect height="400" width="50" fill="#5500ff" x="11250"/><rect height="400" width="50" fill="#5500ff" x="11300"/><rect height="400" width="50" fill="#5500ff" x="11350"/><rect height="400" width="50" fill="#5500ff" x="11400"/><rect height="400" width="50" fill="#5500ff" x="11450"/><rect height="400" width="50" fill="#5500ff" x="11500"/><rect height="400" width="50" fill="#5500ff" x="11550"/><rect height="400" width="50" fill="#5500ff" x="11600"/><rect height="400" width="50" fill="#5500ff" x="11650"/><rect height="400" width="50" fill="#5500ff" x="11700"/><rect height="400" width="50" fill="#d43f55" x="11750"/><rect height="400" width="50" fill="#d49f55" x="11800"/><rect height="400" width="50" fill="#d4ff00" x="11850"/><rect height="400" width="50" fill="#ff5fff" x="11900"/><rect height="400" width="50" fill="#ff1f00" x="11950"/><rect height="400" width="50" fill="#7fbf55" x="12000"/><rect height="400" width="50" fill="#7fbf55" x="12050"/><rect height="400" width="50" fill="#00bf55" x="12100"/><rect height="400" width="50" fill="#7fbf55" x="12150"/><rect height="400" width="50" fill="#d49f55" x="12200"/><rect height="400" width="50" fill="#aa3faa" x="12250"/><rect height="400" width="50" fill="#7fbfaa" x="12300"/><rect height="400" width="50" fill="#ffff00" x="12350"/><rect height="400" width="50" fill="#d49f55" x="12400"/><rect height="400" width="50" fill="#7fbfaa" x="12450"/><rect height="400" width="50" fill="#ff1f00" x="12500"/><rect height="400" width="50" fill="#00bf55" x="12550"/><rect height="400" width="50" fill="#d4ff00" x="12600"/><rect height="400" width="50" fill="#ff1f00" x="12650"/><rect height="400" width="50" fill="#aa0000" x="12700"/><rect height="400" width="50" fill="#00ff55" x="12750"/><rect height="400" width="50" fill="#ff1f00" x="12800"/><rect height="400" width="50" fill="#aa0000" x="12850"/><rect height="400" width="50" fill="#d43faa" x="12900"/><rect height="400" width="50" fill="#5500ff" x="12950"/><rect height="400" width="50" fill="#5500ff" x="13000"/><rect height="400" width="50" fill="#5500ff" x="13050"/><rect height="400" width="50" fill="#5500ff" x="13100"/><rect height="400" width="50" fill="#5500ff" x="13150"/><rect height="400" width="50" fill="#5500ff" x="13200"/><rect height="400" width="50" fill="#5500ff" x="13250"/><rect height="400" width="50" fill="#5500ff" x="13300"/><rect height="400" width="50" fill="#55dfff" x="13350"/><rect height="400" width="50" fill="#7f9faa" x="13400"/><rect height="400" width="50" fill="#d47fff" x="13450"/><rect height="400" width="50" fill="#d43faa" x="13500"/><rect height="400" width="50" fill="#5500ff" x="13550"/><rect height="400" width="50" fill="#5500ff" x="13600"/><rect height="400" width="50" fill="#2a1fff" x="13650"/><rect height="400" width="50" fill="#d43faa" x="13700"/></svg>