<?xml version="1.0" encoding="UTF-8"?>
<!DOCTYPE svg PUBLIC "-//W3C//DTD SVG 1.1//EN"
    "http://www.w3.org/Graphics/SVG/1.1/DTD/svg11.dtd"><svg xmlns="http://www.w3.org/2000/svg" width="40" xmlns:xlink="http://www.w3.org/1999/xlink" height="40" version="1.11.1"><path fill="#008000" stroke="white" d="M 35.0000,20.0000 L 40.0000,20.0000 A 20.0000,20.0000 0.0000 1 0 30.0000 37.3205 L 27.5000,32.9904 A 15.0000,15.0000 0.0000 1 1 35.0000 20.0000 "/><path fill="#008686" stroke="white" d="M 35.0000,20.0000 L 40.0000,20.0000 A 20.0000,20.0000 0.0000 1 0 20.0000 40.0000 L 20.0000,35.0000 A 15.0000,15.0000 0.0000 1 1 35.0000 20.0000 "/><path fill="#008686" stroke="white" d="M 35.0000,20.0000 L 40.0000,20.0000 A 20.0000,20.0000 0.0000 1 0 10.0000 37.3205 L 12.5000,32.9904 A 15.0000,15.0000 0.0000 1 1 35.0000 20.0000 "/><path fill="#800080" stroke="white" d="M 35.0000,20.0000 L 40.0000,20.0000 A 20.0000,20.0000 0.0000 1 0 2.6795 30.0000 L 7.0096,27.5000 A 15.0000,15.0000 0.0000 1 1 35.0000 20.0000 "/><path fill="#0000ff" stroke="white" d="M 35.0000,20.0000 L 40.0000,20.0000 A 20.0000,20.0000 0.0000 0 0 0.0000 20.0000 L 5.0000,20.0000 A 15.0000,15.0000 0.0000 0 1 35.0000 20.0000 "/><path fill="#800080" stroke="white" d="M 35.0000,20.0000 L 40.0000,20.0000 A 20.0000,20.0000 0.0000 0 0 2.6795 10.0000 L 7.0096,12.5000 A 15.0000,15.0000 0.0000 0 1 35.0000 20.0000 "/><path fill="#008686" stroke="white" d="M 35.0000,20.0000 L 40.0000,20.0000 A 20.0000,20.0000 0.0000 0 0 10.0000 2.6795 L 12.5000,7.0096 A 15.0000,15.0000 0.0000 0 1 35.0000 20.0000 "/><path fill="#008000" stroke="white" d="M 35.0000,20.0000 L 40.0000,20.0000 A 20.0000,20.0000 0.0000 0 0 20.0000 0.0000 L 20.0000,5.0000 A 15.0000,15.0000 0.0000 0 1 35.0000 20.0000 "/><path fill="#0000ff" stroke="white" d="M 35.0000,20.0000 L 40.0000,20.0000 A 20.0000,20.0000 0.0000 0 0 30.0000 2.6795 L 27.5000,7.0096 A 15.0000,15.0000 0.0000 0 1 35.0000 20.0000 "/><path fill="#008000" stroke="white" d="M 35.0000,20.0000 L 40.0000,20.0000 A 20.0000,20.0000 0.0000 0 0 37.3205 10.0000 L 32.9904,12.5000 A 15.0000,15.0000 0.0000 0 1 35.0000 20.0000 "/><path fill="#00ff00" stroke="white" d="M 30.0000,20.0000 L 35.0000,20.0000 A 15.0000,15.0000 0.0000 1 1 32.9904 12.5000 L 28.6603,15.0000 A 10.0000,10.0000 0.0000 1 0 30.0000 20.0000 "/><path fill="#008000" stroke="white" d="M 30.0000,20.0000 L 35.0000,20.0000 A 15.0000,15.0000 0.0000 1 0 32.9904 27.5000 L 28.6603,25.0000 A 10.0000,10.0000 0.0000 1 1 30.0000 20.0000 "/><path fill="#008000" stroke="white" d="M 30.0000,20.0000 L 35.0000,20.0000 A 15.0000,15.0000 0.0000 1 0 27.5000 32.9904 L 25.0000,28.6603 A 10.0000,10.0000 0.0000 1 1 30.0000 20.0000 "/><path fill="#000080" stroke="white" d="M 30.0000,20.0000 L 35.0000,20.0000 A 15.0000,15.0000 0.0000 1 0 20.0000 35.0000 L 20.0000,30.0000 A 10.0000,10.0000 0.0000 1 1 30.0000 20.0000 "/><path fill="#00ff00" stroke="white" d="M 30.0000,20.0000 L 35.0000,20.0000 A 15.0000,15.0000 0.0000 1 0 12.5000 32.9904 L 15.0000,28.6603 A 10.0000,10.0000 0.0000 1 1 30.0000 20.0000 "/><path fill="#000080" stroke="white" d="M 30.0000,20.0000 L 35.0000,20.0000 A 15.0000,15.0000 0.0000 1 0 7.0096 27.5000 L 11.3397,25.0000 A 10.0000,10.0000 0.0000 1 1 30.0000 20.0000 "/><path fill="#008686" stroke="white" d="M 30.0000,20.0000 L 35.0000,20.0000 A 15.0000,15.0000 0.0000 0 0 5.0000 20.0000 L 10.0000,20.0000 A 10.0000,10.0000 0.0000 0 1 30.0000 20.0000 "/><path fill="#00ffff" stroke="white" d="M 30.0000,20.0000 L 35.0000,20.0000 A 15.0000,15.0000 0.0000 0 0 7.0096 12.5000 L 11.3397,15.0000 A 10.0000,10.0000 0.0000 0 1 30.0000 20.0000 "/><path fill="#0000ff" stroke="white" d="M 30.0000,20.0000 L 35.0000,20.0000 A 15.0000,15.0000 0.0000 0 0 12.5000 7.0096 L 15.0000,11.3397 A 10.0000,10.0000 0.0000 0 1 30.0000 20.0000 "/><path fill="#00ffff" stroke="white" d="M 30.0000,20.0000 L 35.0000,20.0000 A 15.0000,15.0000 0.0000 0 0 20.0000 5.0000 L 20.0000,10.0000 A 10.0000,10.0000 0.0000 0 1 30.0000 20.0000 "/><path fill="#008000" stroke="white" d="M 30.0000,20.0000 L 35.0000,20.0000 A 15.0000,15.0000 0.0000 0 0 27.5000 7.0096 L 25.0000,11.3397 A 10.0000,10.0000 0.0000 0 1 30.0000 20.0000 "/><path fill="#ff00ff" stroke="white" d="M 30.0000,20.0000 L 35.0000,20.0000 A 15.0000,15.0000 0.0000 0 0 32.9904 12.5000 L 28.6603,15.0000 A 10.0000,10.0000 0.0000 0 1 30.0000 20.0000 "/><path fill="#0000ff" stroke="white" d="M 25.0000,20.0000 L 30.0000,20.0000 A 10.0000,10.0000 0.0000 1 1 28.6603 15.0000 L 24.3301,17.5000 A 5.0000,5.0000 0.0000 1 0 25.0000 20.0000 "/><path fill="#ff00ff" stroke="white" d="M 25.0000,20.0000 L 30.0000,20.0000 A 10.0000,10.0000 0.0000 1 0 28.6603 25.0000 L 24.3301,22.5000 A 5.0000,5.0000 0.0000 1 1 25.0000 20.0000 "/><path fill="#00ff00" stroke="white" d="M 25.0000,20.0000 L 30.0000,20.0000 A 10.0000,10.0000 0.0000 1 0 25.0000 28.6603 L 22.5000,24.3301 A 5.0000,5.0000 0.0000 1 1 25.0000 20.0000 "/><path fill="#ff00ff" stroke="white" d="M 25.0000,20.0000 L 30.0000,20.0000 A 10.0000,10.0000 0.0000 1 0 20.0000 30.0000 L 20.0000,25.0000 A 5.0000,5.0000 0.0000 1 1 25.0000 20.0000 "/><path fill="#008000" stroke="white" d="M 25.0000,20.0000 L 30.0000,20.0000 A 10.0000,10.0000 0.0000 1 0 15.0000 28.6603 L 17.5000,24.3301 A 5.0000,5.0000 0.0000 1 1 25.0000 20.0000 "/><path fill="#0000ff" stroke="white" d="M 25.0000,20.0000 L 30.0000,20.0000 A 10.0000,10.0000 0.0000 1 0 11.3397 25.0000 L 15.6699,22.5000 A 5.0000,5.0000 0.0000 1 1 25.0000 20.0000 "/><path fill="#00ff00" stroke="white" d="M 25.0000,20.0000 L 30.0000,20.0000 A 10.0000,10.0000 0.0000 0 0 10.0000 20.0000 L 15.0000,20.0000 A 5.0000,5.0000 0.0000 0 1 25.0000 20.0000 "/><path fill="#0000ff" stroke="white" d="M 25.0000,20.0000 L 30.0000,20.0000 A 10.0000,10.0000 0.0000 0 0 11.3397 15.0000 L 15.6699,17.5000 A 5.0000,5.0000 0.0000 0 1 25.0000 20.0000 "/><path fill="#008686" stroke="white" d="M 25.0000,20.0000 L 30.0000,20.0000 A 10.0000,10.0000 0.0000 0 0 15.0000 11.3397 L 17.5000,15.6699 A 5.0000,5.0000 0.0000 0 1 25.0000 20.0000 "/><path fill="#ffff00" stroke="white" d="M 25.0000,20.0000 L 30.0000,20.0000 A 10.0000,10.0000 0.0000 0 0 20.0000 10.0000 L 20.0000,15.0000 A 5.0000,5.0000 0.0000 0 1 25.0000 20.0000 "/><path fill="#0000ff" stroke="white" d="M 25.0000,20.0000 L 30.0000,20.0000 A 10.0000,10.0000 0.0000 0 0 25.0000 11.3397 L 22.5000,15.6699 A 5.0000,5.0000 0.0000 0 1 25.0000 20.0000 "/><path fill="#ffff00" stroke="white" d="M 25.0000,20.0000 L 30.0000,20.0000 A 10.0000,10.0000 0.0000 0 0 28.6603 15.0000 L 24.3301,17.5000 A 5.0000,5.0000 0.0000 0 1 25.0000 20.0000 "/><path fill="#008686" stroke="white" d="M 20.0000,20.0000 L 25.0000,20.0000 A 5.0000,5.0000 0.0000 1 1 24.3301 17.5000 L 20.0000,20.0000 A 0.0000,0.0000 0.0000 1 0 20.0000 20.0000 "/><path fill="#00ff00" stroke="white" d="M 20.0000,20.0000 L 25.0000,20.0000 A 5.0000,5.0000 0.0000 1 0 24.3301 22.5000 L 20.0000,20.0000 A 0.0000,0.0000 0.0000 1 1 20.0000 20.0000 "/><path fill="#008000" stroke="white" d="M 20.0000,20.0000 L 25.0000,20.0000 A 5.0000,5.0000 0.0000 1 0 22.5000 24.3301 L 20.0000,20.0000 A 0.0000,0.0000 0.0000 1 1 20.0000 20.0000 "/><path fill="#00ff00" stroke="white" d="M 20.0000,20.0000 L 25.0000,20.0000 A 5.0000,5.0000 0.0000 1 0 20.0000 25.0000 L 20.0000,20.0000 A 0.0000,0.0000 0.0000 1 1 20.0000 20.0000 "/><path fill="#0000ff" stroke="white" d="M 20.0000,20.0000 L 25.0000,20.0000 A 5.0000,5.0000 0.0000 1 0 17.5000 24.3301 L 20.0000,20.0000 A 0.0000,0.0000 0.0000 1 1 20.0000 20.0000 "/><path fill="#00ff00" stroke="white" d="M 20.0000,20.0000 L 25.0000,20.0000 A 5.0000,5.0000 0.0000 1 0 15.6699 22.5000 L 20.0000,20.0000 A 0.0000,0.0000 0.0000 1 1 20.0000 20.0000 "/><path fill="#00ff00" stroke="white" d="M 20.0000,20.0000 L 25.0000,20.0000 A 5.0000,5.0000 0.0000 0 0 15.0000 20.0000 L 20.0000,20.0000 A 0.0000,0.0000 0.0000 0 1 20.0000 20.0000 "/><path fill="#00ff00" stroke="white" d="M 20.0000,20.0000 L 25.0000,20.0000 A 5.0000,5.0000 0.0000 0 0 15.6699 17.5000 L 20.0000,20.0000 A 0.0000,0.0000 0.0000 0 1 20.0000 20.0000 "/><path fill="#008000" stroke="white" d="M 20.0000,20.0000 L 25.0000,20.0000 A 5.0000,5.0000 0.0000 0 0 17.5000 15.6699 L 20.0000,20.0000 A 0.0000,0.0000 0.0000 0 1 20.0000 20.0000 "/><path fill="#00ffff" stroke="white" d="M 20.0000,20.0000 L 25.0000,20.0000 A 5.0000,5.0000 0.0000 0 0 20.0000 15.0000 L 20.0000,20.0000 A 0.0000,0.0000 0.0000 0 1 20.0000 20.0000 "/><path fill="#0000ff" stroke="white" d="M 20.0000,20.0000 L 25.0000,20.0000 A 5.0000,5.0000 0.0000 0 0 22.5000 15.6699 L 20.0000,20.0000 A 0.0000,0.0000 0.0000 0 1 20.0000 20.0000 "/><path fill="#ffff00" stroke="white" d="M 20.0000,20.0000 L 25.0000,20.0000 A 5.0000,5.0000 0.0000 0 0 24.3301 17.5000 L 20.0000,20.0000 A 0.0000,0.0000 0.0000 0 1 20.0000 20.0000 "/></svg>