<?xml version="1.0" encoding="UTF-8"?>
<!DOCTYPE svg PUBLIC "-//W3C//DTD SVG 1.1//EN"
    "http://www.w3.org/Graphics/SVG/1.1/DTD/svg11.dtd"><svg xmlns="http://www.w3.org/2000/svg" width="250" xmlns:xlink="http://www.w3.org/1999/xlink" height="250" version="1.11.1"><path fill="#0000ff" stroke="white" d="M 245.0000,125.0000 L 250.0000,125.0000 A 125.0000,125.0000 0.0000 0 0 125.0000 0.0000 L 125.0000,5.0000 A 120.0000,120.0000 0.0000 0 1 245.0000 125.0000 "/><path fill="#008000" stroke="white" d="M 245.0000,125.0000 L 250.0000,125.0000 A 125.0000,125.0000 0.0000 0 0 187.5000 16.7468 L 185.0000,21.0770 A 120.0000,120.0000 0.0000 0 1 245.0000 125.0000 "/><path fill="#000080" stroke="white" d="M 245.0000,125.0000 L 250.0000,125.0000 A 125.0000,125.0000 0.0000 0 0 233.2532 62.5000 L 228.9230,65.0000 A 120.0000,120.0000 0.0000 0 1 245.0000 125.0000 "/><path fill="#00ff00" stroke="white" d="M 240.0000,125.0000 L 245.0000,125.0000 A 120.0000,120.0000 0.0000 1 1 228.9230 65.0000 L 224.5929,67.5000 A 115.0000,115.0000 0.0000 1 0 240.0000 125.0000 "/><path fill="#000080" stroke="white" d="M 240.0000,125.0000 L 245.0000,125.0000 A 120.0000,120.0000 0.0000 1 0 228.9231 185.0000 L 224.5929,182.5000 A 115.0000,115.0000 0.0000 1 1 240.0000 125.0000 "/><path fill="#000080" stroke="white" d="M 240.0000,125.0000 L 245.0000,125.0000 A 120.0000,120.0000 0.0000 1 0 185.0000 228.9230 L 182.5000,224.5929 A 115.0000,115.0000 0.0000 1 1 240.0000 125.0000 "/><path fill="#008686" stroke="white" d="M 240.0000,125.0000 L 245.0000,125.0000 A 120.0000,120.0000 0.0000 1 0 125.0000 245.0000 L 125.0000,240.0000 A 115.0000,115.0000 0.0000 1 1 240.0000 125.0000 "/><path fill="#00ffff" stroke="white" d="M 240.0000,125.0000 L 245.0000,125.0000 A 120.0000,120.0000 0.0000 1 0 65.0000 228.9230 L 67.5000,224.5929 A 115.0000,115.0000 0.0000 1 1 240.0000 125.0000 "/><path fill="#000080" stroke="white" d="M 240.0000,125.0000 L 245.0000,125.0000 A 120.0000,120.0000 0.0000 1 0 21.0770 185.0000 L 25.4071,182.5000 A 115.0000,115.0000 0.0000 1 1 240.0000 125.0000 "/><path fill="#0000ff" stroke="white" d="M 240.0000,125.0000 L 245.0000,125.0000 A 120.0000,120.0000 0.0000 0 0 5.0000 125.0000 L 10.0000,125.0000 A 115.0000,115.0000 0.0000 0 1 240.0000 125.0000 "/><path fill="#00ffff" stroke="white" d="M 240.0000,125.0000 L 245.0000,125.0000 A 120.0000,120.0000 0.0000 0 0 21.0769 65.0000 L 25.4071,67.5000 A 115.0000,115.0000 0.0000 0 1 240.0000 125.0000 "/><path fill="#000080" stroke="white" d="M 240.0000,125.0000 L 245.0000,125.0000 A 120.0000,120.0000 0.0000 0 0 65.0000 21.0770 L 67.5000,25.4071 A 115.0000,115.0000 0.0000 0 1 240.0000 125.0000 "/><path fill="#008000" stroke="white" d="M 240.0000,125.0000 L 245.0000,125.0000 A 120.0000,120.0000 0.0000 0 0 125.0000 5.0000 L 125.0000,10.0000 A 115.0000,115.0000 0.0000 0 1 240.0000 125.0000 "/><path fill="#ff00ff" stroke="white" d="M 240.0000,125.0000 L 245.0000,125.0000 A 120.0000,120.0000 0.0000 0 0 185.0000 21.0770 L 182.5000,25.4071 A 115.0000,115.0000 0.0000 0 1 240.0000 125.0000 "/><path fill="#000080" stroke="white" d="M 240.0000,125.0000 L 245.0000,125.0000 A 120.0000,120.0000 0.0000 0 0 228.9230 65.0000 L 224.5929,67.5000 A 115.0000,115.0000 0.0000 0 1 240.0000 125.0000 "/><path fill="#0000ff" stroke="white" d="M 235.0000,125.0000 L 240.0000,125.0000 A 115.0000,115.0000 0.0000 1 1 224.5929 67.5000 L 220.2628,70.0000 A 110.0000,110.0000 0.0000 1 0 235.0000 125.0000 "/><path fill="#ff00ff" stroke="white" d="M 235.0000,125.0000 L 240.0000,125.0000 A 115.0000,115.0000 0.0000 1 0 224.5929 182.5000 L 220.2628,180.0000 A 110.0000,110.0000 0.0000 1 1 235.0000 125.0000 "/><path fill="#000080" stroke="white" d="M 235.0000,125.0000 L 240.0000,125.0000 A 115.0000,115.0000 0.0000 1 0 182.5000 224.5929 L 180.0000,220.2628 A 110.0000,110.0000 0.0000 1 1 235.0000 125.0000 "/><path fill="#00ff00" stroke="white" d="M 235.0000,125.0000 L 240.0000,125.0000 A 115.0000,115.0000 0.0000 1 0 125.0000 240.0000 L 125.0000,235.0000 A 110.0000,110.0000 0.0000 1 1 235.0000 125.0000 "/><path fill="#ff00ff" stroke="white" d="M 235.0000,125.0000 L 240.0000,125.0000 A 115.0000,115.0000 0.0000 1 0 67.5000 224.5929 L 70.0000,220.2628 A 110.0000,110.0000 0.0000 1 1 235.0000 125.0000 "/><path fill="#000080" stroke="white" d="M 235.0000,125.0000 L 240.0000,125.0000 A 115.0000,115.0000 0.0000 1 0 25.4071 182.5000 L 29.7372,180.0000 A 110.0000,110.0000 0.0000 1 1 235.0000 125.0000 "/><path fill="#00ff00" stroke="white" d="M 235.0000,125.0000 L 240.0000,125.0000 A 115.0000,115.0000 0.0000 0 0 10.0000 125.0000 L 15.0000,125.0000 A 110.0000,110.0000 0.0000 0 1 235.0000 125.0000 "/><path fill="#0000ff" stroke="white" d="M 235.0000,125.0000 L 240.0000,125.0000 A 115.0000,115.0000 0.0000 0 0 25.4071 67.5000 L 29.7372,70.0000 A 110.0000,110.0000 0.0000 0 1 235.0000 125.0000 "/><path fill="#000080" stroke="white" d="M 235.0000,125.0000 L 240.0000,125.0000 A 115.0000,115.0000 0.0000 0 0 67.5000 25.4071 L 70.0000,29.7372 A 110.0000,110.0000 0.0000 0 1 235.0000 125.0000 "/><path fill="#008686" stroke="white" d="M 235.0000,125.0000 L 240.0000,125.0000 A 115.0000,115.0000 0.0000 0 0 125.0000 10.0000 L 125.0000,15.0000 A 110.0000,110.0000 0.0000 0 1 235.0000 125.0000 "/><path fill="#00ff00" stroke="white" d="M 235.0000,125.0000 L 240.0000,125.0000 A 115.0000,115.0000 0.0000 0 0 182.5000 25.4071 L 180.0000,29.7372 A 110.0000,110.0000 0.0000 0 1 235.0000 125.0000 "/><path fill="#000080" stroke="white" d="M 235.0000,125.0000 L 240.0000,125.0000 A 115.0000,115.0000 0.0000 0 0 224.5929 67.5000 L 220.2628,70.0000 A 110.0000,110.0000 0.0000 0 1 235.0000 125.0000 "/><path fill="#008000" stroke="white" d="M 230.0000,125.0000 L 235.0000,125.0000 A 110.0000,110.0000 0.0000 1 1 220.2628 70.0000 L 215.9327,72.5000 A 105.0000,105.0000 0.0000 1 0 230.0000 125.0000 "/><path fill="#00ff00" stroke="white" d="M 230.0000,125.0000 L 235.0000,125.0000 A 110.0000,110.0000 0.0000 1 0 220.2628 180.0000 L 215.9327,177.5000 A 105.0000,105.0000 0.0000 1 1 230.0000 125.0000 "/><path fill="#000080" stroke="white" d="M 230.0000,125.0000 L 235.0000,125.0000 A 110.0000,110.0000 0.0000 1 0 180.0000 220.2628 L 177.5000,215.9326 A 105.0000,105.0000 0.0000 1 1 230.0000 125.0000 "/><path fill="#0000ff" stroke="white" d="M 230.0000,125.0000 L 235.0000,125.0000 A 110.0000,110.0000 0.0000 1 0 125.0000 235.0000 L 125.0000,230.0000 A 105.0000,105.0000 0.0000 1 1 230.0000 125.0000 "/><path fill="#00ff00" stroke="white" d="M 230.0000,125.0000 L 235.0000,125.0000 A 110.0000,110.0000 0.0000 1 0 70.0000 220.2628 L 72.5000,215.9327 A 105.0000,105.0000 0.0000 1 1 230.0000 125.0000 "/><path fill="#000080" stroke="white" d="M 230.0000,125.0000 L 235.0000,125.0000 A 110.0000,110.0000 0.0000 1 0 29.7372 180.0000 L 34.0673,177.5000 A 105.0000,105.0000 0.0000 1 1 230.0000 125.0000 "/><path fill="#008000" stroke="white" d="M 230.0000,125.0000 L 235.0000,125.0000 A 110.0000,110.0000 0.0000 0 0 15.0000 125.0000 L 20.0000,125.0000 A 105.0000,105.0000 0.0000 0 1 230.0000 125.0000 "/><path fill="#ff0000" stroke="white" d="M 230.0000,125.0000 L 235.0000,125.0000 A 110.0000,110.0000 0.0000 0 0 29.7372 70.0000 L 34.0673,72.5000 A 105.0000,105.0000 0.0000 0 1 230.0000 125.0000 "/><path fill="#000080" stroke="white" d="M 230.0000,125.0000 L 235.0000,125.0000 A 110.0000,110.0000 0.0000 0 0 70.0000 29.7372 L 72.5000,34.0673 A 105.0000,105.0000 0.0000 0 1 230.0000 125.0000 "/><path fill="#00ff00" stroke="white" d="M 230.0000,125.0000 L 235.0000,125.0000 A 110.0000,110.0000 0.0000 0 0 125.0000 15.0000 L 125.0000,20.0000 A 105.0000,105.0000 0.0000 0 1 230.0000 125.0000 "/><path fill="#ff0000" stroke="white" d="M 230.0000,125.0000 L 235.0000,125.0000 A 110.0000,110.0000 0.0000 0 0 180.0000 29.7372 L 177.5000,34.0673 A 105.0000,105.0000 0.0000 0 1 230.0000 125.0000 "/><path fill="#000080" stroke="white" d="M 230.0000,125.0000 L 235.0000,125.0000 A 110.0000,110.0000 0.0000 0 0 220.2628 70.0000 L 215.9327,72.5000 A 105.0000,105.0000 0.0000 0 1 230.0000 125.0000 "/><path fill="#008686" stroke="white" d="M 225.0000,125.0000 L 230.0000,125.0000 A 105.0000,105.0000 0.0000 1 1 215.9327 72.5000 L 211.6025,75.0000 A 100.0000,100.0000 0.0000 1 0 225.0000 125.0000 "/><path fill="#008686" stroke="white" d="M 225.0000,125.0000 L 230.0000,125.0000 A 105.0000,105.0000 0.0000 1 0 215.9327 177.5000 L 211.6026,175.0000 A 100.0000,100.0000 0.0000 1 1 225.0000 125.0000 "/><path fill="#00ffff" stroke="white" d="M 225.0000,125.0000 L 230.0000,125.0000 A 105.0000,105.0000 0.0000 1 0 177.5000 215.9326 L 175.0000,211.6025 A 100.0000,100.0000 0.0000 1 1 225.0000 125.0000 "/><path fill="#0000ff" stroke="white" d="M 225.0000,125.0000 L 230.0000,125.0000 A 105.0000,105.0000 0.0000 1 0 125.0000 230.0000 L 125.0000,225.0000 A 100.0000,100.0000 0.0000 1 1 225.0000 125.0000 "/><path fill="#008686" stroke="white" d="M 225.0000,125.0000 L 230.0000,125.0000 A 105.0000,105.0000 0.0000 1 0 72.5000 215.9327 L 75.0000,211.6025 A 100.0000,100.0000 0.0000 1 1 225.0000 125.0000 "/><path fill="#00ffff" stroke="white" d="M 225.0000,125.0000 L 230.0000,125.0000 A 105.0000,105.0000 0.0000 1 0 34.0673 177.5000 L 38.3975,175.0000 A 100.0000,100.0000 0.0000 1 1 225.0000 125.0000 "/><path fill="#008000" stroke="white" d="M 225.0000,125.0000 L 230.0000,125.0000 A 105.0000,105.0000 0.0000 0 0 20.0000 125.0000 L 25.0000,125.0000 A 100.0000,100.0000 0.0000 0 1 225.0000 125.0000 "/><path fill="#800080" stroke="white" d="M 225.0000,125.0000 L 230.0000,125.0000 A 105.0000,105.0000 0.0000 0 0 34.0673 72.5000 L 38.3974,75.0000 A 100.0000,100.0000 0.0000 0 1 225.0000 125.0000 "/><path fill="#00ffff" stroke="white" d="M 225.0000,125.0000 L 230.0000,125.0000 A 105.0000,105.0000 0.0000 0 0 72.5000 34.0673 L 75.0000,38.3975 A 100.0000,100.0000 0.0000 0 1 225.0000 125.0000 "/><path fill="#008000" stroke="white" d="M 225.0000,125.0000 L 230.0000,125.0000 A 105.0000,105.0000 0.0000 0 0 125.0000 20.0000 L 125.0000,25.0000 A 100.0000,100.0000 0.0000 0 1 225.0000 125.0000 "/><path fill="#008000" stroke="white" d="M 225.0000,125.0000 L 230.0000,125.0000 A 105.0000,105.0000 0.0000 0 0 177.5000 34.0673 L 175.0000,38.3975 A 100.0000,100.0000 0.0000 0 1 225.0000 125.0000 "/><path fill="#00ffff" stroke="white" d="M 225.0000,125.0000 L 230.0000,125.0000 A 105.0000,105.0000 0.0000 0 0 215.9327 72.5000 L 211.6025,75.0000 A 100.0000,100.0000 0.0000 0 1 225.0000 125.0000 "/><path fill="#00ff00" stroke="white" d="M 220.0000,125.0000 L 225.0000,125.0000 A 100.0000,100.0000 0.0000 1 1 211.6025 75.0000 L 207.2724,77.5000 A 95.0000,95.0000 0.0000 1 0 220.0000 125.0000 "/><path fill="#008000" stroke="white" d="M 220.0000,125.0000 L 225.0000,125.0000 A 100.0000,100.0000 0.0000 1 0 211.6026 175.0000 L 207.2724,172.5000 A 95.0000,95.0000 0.0000 1 1 220.0000 125.0000 "/><path fill="#00ffff" stroke="white" d="M 220.0000,125.0000 L 225.0000,125.0000 A 100.0000,100.0000 0.0000 1 0 175.0000 211.6025 L 172.5000,207.2724 A 95.0000,95.0000 0.0000 1 1 220.0000 125.0000 "/><path fill="#008686" stroke="white" d="M 220.0000,125.0000 L 225.0000,125.0000 A 100.0000,100.0000 0.0000 1 0 125.0000 225.0000 L 125.0000,220.0000 A 95.0000,95.0000 0.0000 1 1 220.0000 125.0000 "/><path fill="#000080" stroke="white" d="M 220.0000,125.0000 L 225.0000,125.0000 A 100.0000,100.0000 0.0000 1 0 75.0000 211.6025 L 77.5000,207.2724 A 95.0000,95.0000 0.0000 1 1 220.0000 125.0000 "/><path fill="#00ffff" stroke="white" d="M 220.0000,125.0000 L 225.0000,125.0000 A 100.0000,100.0000 0.0000 1 0 38.3975 175.0000 L 42.7276,172.5000 A 95.0000,95.0000 0.0000 1 1 220.0000 125.0000 "/><path fill="#0000ff" stroke="white" d="M 220.0000,125.0000 L 225.0000,125.0000 A 100.0000,100.0000 0.0000 0 0 25.0000 125.0000 L 30.0000,125.0000 A 95.0000,95.0000 0.0000 0 1 220.0000 125.0000 "/><path fill="#000080" stroke="white" d="M 220.0000,125.0000 L 225.0000,125.0000 A 100.0000,100.0000 0.0000 0 0 38.3974 75.0000 L 42.7276,77.5000 A 95.0000,95.0000 0.0000 0 1 220.0000 125.0000 "/><path fill="#00ffff" stroke="white" d="M 220.0000,125.0000 L 225.0000,125.0000 A 100.0000,100.0000 0.0000 0 0 75.0000 38.3975 L 77.5000,42.7276 A 95.0000,95.0000 0.0000 0 1 220.0000 125.0000 "/><path fill="#008000" stroke="white" d="M 220.0000,125.0000 L 225.0000,125.0000 A 100.0000,100.0000 0.0000 0 0 125.0000 25.0000 L 125.0000,30.0000 A 95.0000,95.0000 0.0000 0 1 220.0000 125.0000 "/><path fill="#00ffff" stroke="white" d="M 220.0000,125.0000 L 225.0000,125.0000 A 100.0000,100.0000 0.0000 0 0 175.0000 38.3975 L 172.5000,42.7276 A 95.0000,95.0000 0.0000 0 1 220.0000 125.0000 "/><path fill="#00ffff" stroke="white" d="M 220.0000,125.0000 L 225.0000,125.0000 A 100.0000,100.0000 0.0000 0 0 211.6025 75.0000 L 207.2724,77.5000 A 95.0000,95.0000 0.0000 0 1 220.0000 125.0000 "/><path fill="#008000" stroke="white" d="M 215.0000,125.0000 L 220.0000,125.0000 A 95.0000,95.0000 0.0000 1 1 207.2724 77.5000 L 202.9423,80.0000 A 90.0000,90.0000 0.0000 1 0 215.0000 125.0000 "/><path fill="#ff00ff" stroke="white" d="M 215.0000,125.0000 L 220.0000,125.0000 A 95.0000,95.0000 0.0000 1 0 207.2724 172.5000 L 202.9423,170.0000 A 90.0000,90.0000 0.0000 1 1 215.0000 125.0000 "/><path fill="#00ffff" stroke="white" d="M 215.0000,125.0000 L 220.0000,125.0000 A 95.0000,95.0000 0.0000 1 0 172.5000 207.2724 L 170.0000,202.9423 A 90.0000,90.0000 0.0000 1 1 215.0000 125.0000 "/><path fill="#00ff00" stroke="white" d="M 215.0000,125.0000 L 220.0000,125.0000 A 95.0000,95.0000 0.0000 1 0 125.0000 220.0000 L 125.0000,215.0000 A 90.0000,90.0000 0.0000 1 1 215.0000 125.0000 "/><path fill="#ff00ff" stroke="white" d="M 215.0000,125.0000 L 220.0000,125.0000 A 95.0000,95.0000 0.0000 1 0 77.5000 207.2724 L 80.0000,202.9423 A 90.0000,90.0000 0.0000 1 1 215.0000 125.0000 "/><path fill="#00ffff" stroke="white" d="M 215.0000,125.0000 L 220.0000,125.0000 A 95.0000,95.0000 0.0000 1 0 42.7276 172.5000 L 47.0577,170.0000 A 90.0000,90.0000 0.0000 1 1 215.0000 125.0000 "/><path fill="#0000ff" stroke="white" d="M 215.0000,125.0000 L 220.0000,125.0000 A 95.0000,95.0000 0.0000 0 0 30.0000 125.0000 L 35.0000,125.0000 A 90.0000,90.0000 0.0000 0 1 215.0000 125.0000 "/><path fill="#ffff00" stroke="white" d="M 215.0000,125.0000 L 220.0000,125.0000 A 95.0000,95.0000 0.0000 0 0 42.7276 77.5000 L 47.0577,80.0000 A 90.0000,90.0000 0.0000 0 1 215.0000 125.0000 "/><path fill="#00ffff" stroke="white" d="M 215.0000,125.0000 L 220.0000,125.0000 A 95.0000,95.0000 0.0000 0 0 77.5000 42.7276 L 80.0000,47.0577 A 90.0000,90.0000 0.0000 0 1 215.0000 125.0000 "/><path fill="#00ff00" stroke="white" d="M 215.0000,125.0000 L 220.0000,125.0000 A 95.0000,95.0000 0.0000 0 0 125.0000 30.0000 L 125.0000,35.0000 A 90.0000,90.0000 0.0000 0 1 215.0000 125.0000 "/><path fill="#ffff00" stroke="white" d="M 215.0000,125.0000 L 220.0000,125.0000 A 95.0000,95.0000 0.0000 0 0 172.5000 42.7276 L 170.0000,47.0577 A 90.0000,90.0000 0.0000 0 1 215.0000 125.0000 "/><path fill="#00ffff" stroke="white" d="M 215.0000,125.0000 L 220.0000,125.0000 A 95.0000,95.0000 0.0000 0 0 207.2724 77.5000 L 202.9423,80.0000 A 90.0000,90.0000 0.0000 0 1 215.0000 125.0000 "/><path fill="#008686" stroke="white" d="M 210.0000,125.0000 L 215.0000,125.0000 A 90.0000,90.0000 0.0000 1 1 202.9423 80.0000 L 198.6122,82.5000 A 85.0000,85.0000 0.0000 1 0 210.0000 125.0000 "/><path fill="#ff0000" stroke="white" d="M 210.0000,125.0000 L 215.0000,125.0000 A 90.0000,90.0000 0.0000 1 0 202.9423 170.0000 L 198.6122,167.5000 A 85.0000,85.0000 0.0000 1 1 210.0000 125.0000 "/><path fill="#00ffff" stroke="white" d="M 210.0000,125.0000 L 215.0000,125.0000 A 90.0000,90.0000 0.0000 1 0 170.0000 202.9423 L 167.5000,198.6122 A 85.0000,85.0000 0.0000 1 1 210.0000 125.0000 "/><path fill="#0000ff" stroke="white" d="M 210.0000,125.0000 L 215.0000,125.0000 A 90.0000,90.0000 0.0000 1 0 125.0000 215.0000 L 125.0000,210.0000 A 85.0000,85.0000 0.0000 1 1 210.0000 125.0000 "/><path fill="#ff0000" stroke="white" d="M 210.0000,125.0000 L 215.0000,125.0000 A 90.0000,90.0000 0.0000 1 0 80.0000 202.9423 L 82.5000,198.6122 A 85.0000,85.0000 0.0000 1 1 210.0000 125.0000 "/><path fill="#00ffff" stroke="white" d="M 210.0000,125.0000 L 215.0000,125.0000 A 90.0000,90.0000 0.0000 1 0 47.0577 170.0000 L 51.3879,167.5000 A 85.0000,85.0000 0.0000 1 1 210.0000 125.0000 "/><path fill="#008686" stroke="white" d="M 210.0000,125.0000 L 215.0000,125.0000 A 90.0000,90.0000 0.0000 0 0 35.0000 125.0000 L 40.0000,125.0000 A 85.0000,85.0000 0.0000 0 1 210.0000 125.0000 "/><path fill="#008686" stroke="white" d="M 210.0000,125.0000 L 215.0000,125.0000 A 90.0000,90.0000 0.0000 0 0 47.0577 80.0000 L 51.3878,82.5000 A 85.0000,85.0000 0.0000 0 1 210.0000 125.0000 "/><path fill="#ff00ff" stroke="white" d="M 210.0000,125.0000 L 215.0000,125.0000 A 90.0000,90.0000 0.0000 0 0 80.0000 47.0577 L 82.5000,51.3878 A 85.0000,85.0000 0.0000 0 1 210.0000 125.0000 "/><path fill="#00ff00" stroke="white" d="M 210.0000,125.0000 L 215.0000,125.0000 A 90.0000,90.0000 0.0000 0 0 125.0000 35.0000 L 125.0000,40.0000 A 85.0000,85.0000 0.0000 0 1 210.0000 125.0000 "/><path fill="#008686" stroke="white" d="M 210.0000,125.0000 L 215.0000,125.0000 A 90.0000,90.0000 0.0000 0 0 170.0000 47.0577 L 167.5000,51.3878 A 85.0000,85.0000 0.0000 0 1 210.0000 125.0000 "/><path fill="#ff00ff" stroke="white" d="M 210.0000,125.0000 L 215.0000,125.0000 A 90.0000,90.0000 0.0000 0 0 202.9423 80.0000 L 198.6122,82.5000 A 85.0000,85.0000 0.0000 0 1 210.0000 125.0000 "/><path fill="#008000" stroke="white" d="M 205.0000,125.0000 L 210.0000,125.0000 A 85.0000,85.0000 0.0000 1 1 198.6122 82.5000 L 194.2820,85.0000 A 80.0000,80.0000 0.0000 1 0 205.0000 125.0000 "/><path fill="#800080" stroke="white" d="M 205.0000,125.0000 L 210.0000,125.0000 A 85.0000,85.0000 0.0000 1 0 198.6122 167.5000 L 194.2820,165.0000 A 80.0000,80.0000 0.0000 1 1 205.0000 125.0000 "/><path fill="#ff00ff" stroke="white" d="M 205.0000,125.0000 L 210.0000,125.0000 A 85.0000,85.0000 0.0000 1 0 167.5000 198.6122 L 165.0000,194.2820 A 80.0000,80.0000 0.0000 1 1 205.0000 125.0000 "/><path fill="#008686" stroke="white" d="M 205.0000,125.0000 L 210.0000,125.0000 A 85.0000,85.0000 0.0000 1 0 125.0000 210.0000 L 125.0000,205.0000 A 80.0000,80.0000 0.0000 1 1 205.0000 125.0000 "/><path fill="#008000" stroke="white" d="M 205.0000,125.0000 L 210.0000,125.0000 A 85.0000,85.0000 0.0000 1 0 82.5000 198.6122 L 85.0000,194.2820 A 80.0000,80.0000 0.0000 1 1 205.0000 125.0000 "/><path fill="#ff00ff" stroke="white" d="M 205.0000,125.0000 L 210.0000,125.0000 A 85.0000,85.0000 0.0000 1 0 51.3879 167.5000 L 55.7180,165.0000 A 80.0000,80.0000 0.0000 1 1 205.0000 125.0000 "/><path fill="#008000" stroke="white" d="M 205.0000,125.0000 L 210.0000,125.0000 A 85.0000,85.0000 0.0000 0 0 40.0000 125.0000 L 45.0000,125.0000 A 80.0000,80.0000 0.0000 0 1 205.0000 125.0000 "/><path fill="#000080" stroke="white" d="M 205.0000,125.0000 L 210.0000,125.0000 A 85.0000,85.0000 0.0000 0 0 51.3878 82.5000 L 55.7180,85.0000 A 80.0000,80.0000 0.0000 0 1 205.0000 125.0000 "/><path fill="#ff00ff" stroke="white" d="M 205.0000,125.0000 L 210.0000,125.0000 A 85.0000,85.0000 0.0000 0 0 82.5000 51.3878 L 85.0000,55.7180 A 80.0000,80.0000 0.0000 0 1 205.0000 125.0000 "/><path fill="#0000ff" stroke="white" d="M 205.0000,125.0000 L 210.0000,125.0000 A 85.0000,85.0000 0.0000 0 0 125.0000 40.0000 L 125.0000,45.0000 A 80.0000,80.0000 0.0000 0 1 205.0000 125.0000 "/><path fill="#000080" stroke="white" d="M 205.0000,125.0000 L 210.0000,125.0000 A 85.0000,85.0000 0.0000 0 0 167.5000 51.3878 L 165.0000,55.7180 A 80.0000,80.0000 0.0000 0 1 205.0000 125.0000 "/><path fill="#ff00ff" stroke="white" d="M 205.0000,125.0000 L 210.0000,125.0000 A 85.0000,85.0000 0.0000 0 0 198.6122 82.5000 L 194.2820,85.0000 A 80.0000,80.0000 0.0000 0 1 205.0000 125.0000 "/><path fill="#00ff00" stroke="white" d="M 200.0000,125.0000 L 205.0000,125.0000 A 80.0000,80.0000 0.0000 1 1 194.2820 85.0000 L 189.9519,87.5000 A 75.0000,75.0000 0.0000 1 0 200.0000 125.0000 "/><path fill="#000080" stroke="white" d="M 200.0000,125.0000 L 205.0000,125.0000 A 80.0000,80.0000 0.0000 1 0 194.2820 165.0000 L 189.9519,162.5000 A 75.0000,75.0000 0.0000 1 1 200.0000 125.0000 "/><path fill="#ff00ff" stroke="white" d="M 200.0000,125.0000 L 205.0000,125.0000 A 80.0000,80.0000 0.0000 1 0 165.0000 194.2820 L 162.5000,189.9519 A 75.0000,75.0000 0.0000 1 1 200.0000 125.0000 "/><path fill="#008000" stroke="white" d="M 200.0000,125.0000 L 205.0000,125.0000 A 80.0000,80.0000 0.0000 1 0 125.0000 205.0000 L 125.0000,200.0000 A 75.0000,75.0000 0.0000 1 1 200.0000 125.0000 "/><path fill="#00ffff" stroke="white" d="M 200.0000,125.0000 L 205.0000,125.0000 A 80.0000,80.0000 0.0000 1 0 85.0000 194.2820 L 87.5000,189.9519 A 75.0000,75.0000 0.0000 1 1 200.0000 125.0000 "/><path fill="#ff00ff" stroke="white" d="M 200.0000,125.0000 L 205.0000,125.0000 A 80.0000,80.0000 0.0000 1 0 55.7180 165.0000 L 60.0481,162.5000 A 75.0000,75.0000 0.0000 1 1 200.0000 125.0000 "/><path fill="#008686" stroke="white" d="M 200.0000,125.0000 L 205.0000,125.0000 A 80.0000,80.0000 0.0000 0 0 45.0000 125.0000 L 50.0000,125.0000 A 75.0000,75.0000 0.0000 0 1 200.0000 125.0000 "/><path fill="#ff00ff" stroke="white" d="M 200.0000,125.0000 L 205.0000,125.0000 A 80.0000,80.0000 0.0000 0 0 55.7180 85.0000 L 60.0481,87.5000 A 75.0000,75.0000 0.0000 0 1 200.0000 125.0000 "/><path fill="#ff00ff" stroke="white" d="M 200.0000,125.0000 L 205.0000,125.0000 A 80.0000,80.0000 0.0000 0 0 85.0000 55.7180 L 87.5000,60.0481 A 75.0000,75.0000 0.0000 0 1 200.0000 125.0000 "/><path fill="#0000ff" stroke="white" d="M 200.0000,125.0000 L 205.0000,125.0000 A 80.0000,80.0000 0.0000 0 0 125.0000 45.0000 L 125.0000,50.0000 A 75.0000,75.0000 0.0000 0 1 200.0000 125.0000 "/><path fill="#ff00ff" stroke="white" d="M 200.0000,125.0000 L 205.0000,125.0000 A 80.0000,80.0000 0.0000 0 0 165.0000 55.7180 L 162.5000,60.0481 A 75.0000,75.0000 0.0000 0 1 200.0000 125.0000 "/><path fill="#ff00ff" stroke="white" d="M 200.0000,125.0000 L 205.0000,125.0000 A 80.0000,80.0000 0.0000 0 0 194.2820 85.0000 L 189.9519,87.5000 A 75.0000,75.0000 0.0000 0 1 200.0000 125.0000 "/><path fill="#008686" stroke="white" d="M 195.0000,125.0000 L 200.0000,125.0000 A 75.0000,75.0000 0.0000 1 1 189.9519 87.5000 L 185.6218,90.0000 A 70.0000,70.0000 0.0000 1 0 195.0000 125.0000 "/><path fill="#0000ff" stroke="white" d="M 195.0000,125.0000 L 200.0000,125.0000 A 75.0000,75.0000 0.0000 1 0 189.9519 162.5000 L 185.6218,160.0000 A 70.0000,70.0000 0.0000 1 1 195.0000 125.0000 "/><path fill="#ff00ff" stroke="white" d="M 195.0000,125.0000 L 200.0000,125.0000 A 75.0000,75.0000 0.0000 1 0 162.5000 189.9519 L 160.0000,185.6218 A 70.0000,70.0000 0.0000 1 1 195.0000 125.0000 "/><path fill="#0000ff" stroke="white" d="M 195.0000,125.0000 L 200.0000,125.0000 A 75.0000,75.0000 0.0000 1 0 125.0000 200.0000 L 125.0000,195.0000 A 70.0000,70.0000 0.0000 1 1 195.0000 125.0000 "/><path fill="#0000ff" stroke="white" d="M 195.0000,125.0000 L 200.0000,125.0000 A 75.0000,75.0000 0.0000 1 0 87.5000 189.9519 L 90.0000,185.6218 A 70.0000,70.0000 0.0000 1 1 195.0000 125.0000 "/><path fill="#ff00ff" stroke="white" d="M 195.0000,125.0000 L 200.0000,125.0000 A 75.0000,75.0000 0.0000 1 0 60.0481 162.5000 L 64.3782,160.0000 A 70.0000,70.0000 0.0000 1 1 195.0000 125.0000 "/><path fill="#00ff00" stroke="white" d="M 195.0000,125.0000 L 200.0000,125.0000 A 75.0000,75.0000 0.0000 0 0 50.0000 125.0000 L 55.0000,125.0000 A 70.0000,70.0000 0.0000 0 1 195.0000 125.0000 "/><path fill="#0000ff" stroke="white" d="M 195.0000,125.0000 L 200.0000,125.0000 A 75.0000,75.0000 0.0000 0 0 60.0481 87.5000 L 64.3782,90.0000 A 70.0000,70.0000 0.0000 0 1 195.0000 125.0000 "/><path fill="#ff00ff" stroke="white" d="M 195.0000,125.0000 L 200.0000,125.0000 A 75.0000,75.0000 0.0000 0 0 87.5000 60.0481 L 90.0000,64.3782 A 70.0000,70.0000 0.0000 0 1 195.0000 125.0000 "/><path fill="#00ff00" stroke="white" d="M 195.0000,125.0000 L 200.0000,125.0000 A 75.0000,75.0000 0.0000 0 0 125.0000 50.0000 L 125.0000,55.0000 A 70.0000,70.0000 0.0000 0 1 195.0000 125.0000 "/><path fill="#ffff00" stroke="white" d="M 195.0000,125.0000 L 200.0000,125.0000 A 75.0000,75.0000 0.0000 0 0 162.5000 60.0481 L 160.0000,64.3782 A 70.0000,70.0000 0.0000 0 1 195.0000 125.0000 "/><path fill="#ff00ff" stroke="white" d="M 195.0000,125.0000 L 200.0000,125.0000 A 75.0000,75.0000 0.0000 0 0 189.9519 87.5000 L 185.6218,90.0000 A 70.0000,70.0000 0.0000 0 1 195.0000 125.0000 "/><path fill="#008686" stroke="white" d="M 190.0000,125.0000 L 195.0000,125.0000 A 70.0000,70.0000 0.0000 1 1 185.6218 90.0000 L 181.2917,92.5000 A 65.0000,65.0000 0.0000 1 0 190.0000 125.0000 "/><path fill="#00ff00" stroke="white" d="M 190.0000,125.0000 L 195.0000,125.0000 A 70.0000,70.0000 0.0000 1 0 185.6218 160.0000 L 181.2917,157.5000 A 65.0000,65.0000 0.0000 1 1 190.0000 125.0000 "/><path fill="#ff00ff" stroke="white" d="M 190.0000,125.0000 L 195.0000,125.0000 A 70.0000,70.0000 0.0000 1 0 160.0000 185.6218 L 157.5000,181.2916 A 65.0000,65.0000 0.0000 1 1 190.0000 125.0000 "/><path fill="#008686" stroke="white" d="M 190.0000,125.0000 L 195.0000,125.0000 A 70.0000,70.0000 0.0000 1 0 125.0000 195.0000 L 125.0000,190.0000 A 65.0000,65.0000 0.0000 1 1 190.0000 125.0000 "/><path fill="#ff0000" stroke="white" d="M 190.0000,125.0000 L 195.0000,125.0000 A 70.0000,70.0000 0.0000 1 0 90.0000 185.6218 L 92.5000,181.2917 A 65.0000,65.0000 0.0000 1 1 190.0000 125.0000 "/><path fill="#ff00ff" stroke="white" d="M 190.0000,125.0000 L 195.0000,125.0000 A 70.0000,70.0000 0.0000 1 0 64.3782 160.0000 L 68.7084,157.5000 A 65.0000,65.0000 0.0000 1 1 190.0000 125.0000 "/><path fill="#00ff00" stroke="white" d="M 190.0000,125.0000 L 195.0000,125.0000 A 70.0000,70.0000 0.0000 0 0 55.0000 125.0000 L 60.0000,125.0000 A 65.0000,65.0000 0.0000 0 1 190.0000 125.0000 "/><path fill="#ff0000" stroke="white" d="M 190.0000,125.0000 L 195.0000,125.0000 A 70.0000,70.0000 0.0000 0 0 64.3782 90.0000 L 68.7083,92.5000 A 65.0000,65.0000 0.0000 0 1 190.0000 125.0000 "/><path fill="#ff00ff" stroke="white" d="M 190.0000,125.0000 L 195.0000,125.0000 A 70.0000,70.0000 0.0000 0 0 90.0000 64.3782 L 92.5000,68.7084 A 65.0000,65.0000 0.0000 0 1 190.0000 125.0000 "/><path fill="#008000" stroke="white" d="M 190.0000,125.0000 L 195.0000,125.0000 A 70.0000,70.0000 0.0000 0 0 125.0000 55.0000 L 125.0000,60.0000 A 65.0000,65.0000 0.0000 0 1 190.0000 125.0000 "/><path fill="#008686" stroke="white" d="M 190.0000,125.0000 L 195.0000,125.0000 A 70.0000,70.0000 0.0000 0 0 160.0000 64.3782 L 157.5000,68.7083 A 65.0000,65.0000 0.0000 0 1 190.0000 125.0000 "/><path fill="#0000ff" stroke="white" d="M 190.0000,125.0000 L 195.0000,125.0000 A 70.0000,70.0000 0.0000 0 0 185.6218 90.0000 L 181.2917,92.5000 A 65.0000,65.0000 0.0000 0 1 190.0000 125.0000 "/><path fill="#008686" stroke="white" d="M 185.0000,125.0000 L 190.0000,125.0000 A 65.0000,65.0000 0.0000 1 1 181.2917 92.5000 L 176.9615,95.0000 A 60.0000,60.0000 0.0000 1 0 185.0000 125.0000 "/><path fill="#800080" stroke="white" d="M 185.0000,125.0000 L 190.0000,125.0000 A 65.0000,65.0000 0.0000 1 0 181.2917 157.5000 L 176.9615,155.0000 A 60.0000,60.0000 0.0000 1 1 185.0000 125.0000 "/><path fill="#0000ff" stroke="white" d="M 185.0000,125.0000 L 190.0000,125.0000 A 65.0000,65.0000 0.0000 1 0 157.5000 181.2916 L 155.0000,176.9615 A 60.0000,60.0000 0.0000 1 1 185.0000 125.0000 "/><path fill="#0000ff" stroke="white" d="M 185.0000,125.0000 L 190.0000,125.0000 A 65.0000,65.0000 0.0000 1 0 125.0000 190.0000 L 125.0000,185.0000 A 60.0000,60.0000 0.0000 1 1 185.0000 125.0000 "/><path fill="#800080" stroke="white" d="M 185.0000,125.0000 L 190.0000,125.0000 A 65.0000,65.0000 0.0000 1 0 92.5000 181.2917 L 95.0000,176.9615 A 60.0000,60.0000 0.0000 1 1 185.0000 125.0000 "/><path fill="#0000ff" stroke="white" d="M 185.0000,125.0000 L 190.0000,125.0000 A 65.0000,65.0000 0.0000 1 0 68.7084 157.5000 L 73.0385,155.0000 A 60.0000,60.0000 0.0000 1 1 185.0000 125.0000 "/><path fill="#008686" stroke="white" d="M 185.0000,125.0000 L 190.0000,125.0000 A 65.0000,65.0000 0.0000 0 0 60.0000 125.0000 L 65.0000,125.0000 A 60.0000,60.0000 0.0000 0 1 185.0000 125.0000 "/><path fill="#008000" stroke="white" d="M 185.0000,125.0000 L 190.0000,125.0000 A 65.0000,65.0000 0.0000 0 0 68.7083 92.5000 L 73.0385,95.0000 A 60.0000,60.0000 0.0000 0 1 185.0000 125.0000 "/><path fill="#0000ff" stroke="white" d="M 185.0000,125.0000 L 190.0000,125.0000 A 65.0000,65.0000 0.0000 0 0 92.5000 68.7084 L 95.0000,73.0385 A 60.0000,60.0000 0.0000 0 1 185.0000 125.0000 "/><path fill="#0000ff" stroke="white" d="M 185.0000,125.0000 L 190.0000,125.0000 A 65.0000,65.0000 0.0000 0 0 125.0000 60.0000 L 125.0000,65.0000 A 60.0000,60.0000 0.0000 0 1 185.0000 125.0000 "/><path fill="#008000" stroke="white" d="M 185.0000,125.0000 L 190.0000,125.0000 A 65.0000,65.0000 0.0000 0 0 157.5000 68.7083 L 155.0000,73.0385 A 60.0000,60.0000 0.0000 0 1 185.0000 125.0000 "/><path fill="#0000ff" stroke="white" d="M 185.0000,125.0000 L 190.0000,125.0000 A 65.0000,65.0000 0.0000 0 0 181.2917 92.5000 L 176.9615,95.0000 A 60.0000,60.0000 0.0000 0 1 185.0000 125.0000 "/><path fill="#008000" stroke="white" d="M 180.0000,125.0000 L 185.0000,125.0000 A 60.0000,60.0000 0.0000 1 1 176.9615 95.0000 L 172.6314,97.5000 A 55.0000,55.0000 0.0000 1 0 180.0000 125.0000 "/><path fill="#000080" stroke="white" d="M 180.0000,125.0000 L 185.0000,125.0000 A 60.0000,60.0000 0.0000 1 0 176.9615 155.0000 L 172.6314,152.5000 A 55.0000,55.0000 0.0000 1 1 180.0000 125.0000 "/><path fill="#0000ff" stroke="white" d="M 180.0000,125.0000 L 185.0000,125.0000 A 60.0000,60.0000 0.0000 1 0 155.0000 176.9615 L 152.5000,172.6314 A 55.0000,55.0000 0.0000 1 1 180.0000 125.0000 "/><path fill="#008686" stroke="white" d="M 180.0000,125.0000 L 185.0000,125.0000 A 60.0000,60.0000 0.0000 1 0 125.0000 185.0000 L 125.0000,180.0000 A 55.0000,55.0000 0.0000 1 1 180.0000 125.0000 "/><path fill="#00ffff" stroke="white" d="M 180.0000,125.0000 L 185.0000,125.0000 A 60.0000,60.0000 0.0000 1 0 95.0000 176.9615 L 97.5000,172.6314 A 55.0000,55.0000 0.0000 1 1 180.0000 125.0000 "/><path fill="#0000ff" stroke="white" d="M 180.0000,125.0000 L 185.0000,125.0000 A 60.0000,60.0000 0.0000 1 0 73.0385 155.0000 L 77.3686,152.5000 A 55.0000,55.0000 0.0000 1 1 180.0000 125.0000 "/><path fill="#0000ff" stroke="white" d="M 180.0000,125.0000 L 185.0000,125.0000 A 60.0000,60.0000 0.0000 0 0 65.0000 125.0000 L 70.0000,125.0000 A 55.0000,55.0000 0.0000 0 1 180.0000 125.0000 "/><path fill="#00ffff" stroke="white" d="M 180.0000,125.0000 L 185.0000,125.0000 A 60.0000,60.0000 0.0000 0 0 73.0385 95.0000 L 77.3686,97.5000 A 55.0000,55.0000 0.0000 0 1 180.0000 125.0000 "/><path fill="#0000ff" stroke="white" d="M 180.0000,125.0000 L 185.0000,125.0000 A 60.0000,60.0000 0.0000 0 0 95.0000 73.0385 L 97.5000,77.3686 A 55.0000,55.0000 0.0000 0 1 180.0000 125.0000 "/><path fill="#008686" stroke="white" d="M 180.0000,125.0000 L 185.0000,125.0000 A 60.0000,60.0000 0.0000 0 0 125.0000 65.0000 L 125.0000,70.0000 A 55.0000,55.0000 0.0000 0 1 180.0000 125.0000 "/><path fill="#ff00ff" stroke="white" d="M 180.0000,125.0000 L 185.0000,125.0000 A 60.0000,60.0000 0.0000 0 0 155.0000 73.0385 L 152.5000,77.3686 A 55.0000,55.0000 0.0000 0 1 180.0000 125.0000 "/><path fill="#0000ff" stroke="white" d="M 180.0000,125.0000 L 185.0000,125.0000 A 60.0000,60.0000 0.0000 0 0 176.9615 95.0000 L 172.6314,97.5000 A 55.0000,55.0000 0.0000 0 1 180.0000 125.0000 "/><path fill="#008000" stroke="white" d="M 175.0000,125.0000 L 180.0000,125.0000 A 55.0000,55.0000 0.0000 1 1 172.6314 97.5000 L 168.3013,100.0000 A 50.0000,50.0000 0.0000 1 0 175.0000 125.0000 "/><path fill="#ff00ff" stroke="white" d="M 175.0000,125.0000 L 180.0000,125.0000 A 55.0000,55.0000 0.0000 1 0 172.6314 152.5000 L 168.3013,150.0000 A 50.0000,50.0000 0.0000 1 1 175.0000 125.0000 "/><path fill="#0000ff" stroke="white" d="M 175.0000,125.0000 L 180.0000,125.0000 A 55.0000,55.0000 0.0000 1 0 152.5000 172.6314 L 150.0000,168.3013 A 50.0000,50.0000 0.0000 1 1 175.0000 125.0000 "/><path fill="#008000" stroke="white" d="M 175.0000,125.0000 L 180.0000,125.0000 A 55.0000,55.0000 0.0000 1 0 125.0000 180.0000 L 125.0000,175.0000 A 50.0000,50.0000 0.0000 1 1 175.0000 125.0000 "/><path fill="#0000ff" stroke="white" d="M 175.0000,125.0000 L 180.0000,125.0000 A 55.0000,55.0000 0.0000 1 0 97.5000 172.6314 L 100.0000,168.3013 A 50.0000,50.0000 0.0000 1 1 175.0000 125.0000 "/><path fill="#0000ff" stroke="white" d="M 175.0000,125.0000 L 180.0000,125.0000 A 55.0000,55.0000 0.0000 1 0 77.3686 152.5000 L 81.6987,150.0000 A 50.0000,50.0000 0.0000 1 1 175.0000 125.0000 "/><path fill="#00ff00" stroke="white" d="M 175.0000,125.0000 L 180.0000,125.0000 A 55.0000,55.0000 0.0000 0 0 70.0000 125.0000 L 75.0000,125.0000 A 50.0000,50.0000 0.0000 0 1 175.0000 125.0000 "/><path fill="#0000ff" stroke="white" d="M 175.0000,125.0000 L 180.0000,125.0000 A 55.0000,55.0000 0.0000 0 0 77.3686 97.5000 L 81.6987,100.0000 A 50.0000,50.0000 0.0000 0 1 175.0000 125.0000 "/><path fill="#0000ff" stroke="white" d="M 175.0000,125.0000 L 180.0000,125.0000 A 55.0000,55.0000 0.0000 0 0 97.5000 77.3686 L 100.0000,81.6987 A 50.0000,50.0000 0.0000 0 1 175.0000 125.0000 "/><path fill="#008000" stroke="white" d="M 175.0000,125.0000 L 180.0000,125.0000 A 55.0000,55.0000 0.0000 0 0 125.0000 70.0000 L 125.0000,75.0000 A 50.0000,50.0000 0.0000 0 1 175.0000 125.0000 "/><path fill="#00ff00" stroke="white" d="M 175.0000,125.0000 L 180.0000,125.0000 A 55.0000,55.0000 0.0000 0 0 152.5000 77.3686 L 150.0000,81.6987 A 50.0000,50.0000 0.0000 0 1 175.0000 125.0000 "/><path fill="#0000ff" stroke="white" d="M 175.0000,125.0000 L 180.0000,125.0000 A 55.0000,55.0000 0.0000 0 0 172.6314 97.5000 L 168.3013,100.0000 A 50.0000,50.0000 0.0000 0 1 175.0000 125.0000 "/><path fill="#0000ff" stroke="white" d="M 170.0000,125.0000 L 175.0000,125.0000 A 50.0000,50.0000 0.0000 1 1 168.3013 100.0000 L 163.9712,102.5000 A 45.0000,45.0000 0.0000 1 0 170.0000 125.0000 "/><path fill="#00ff00" stroke="white" d="M 170.0000,125.0000 L 175.0000,125.0000 A 50.0000,50.0000 0.0000 1 0 168.3013 150.0000 L 163.9712,147.5000 A 45.0000,45.0000 0.0000 1 1 170.0000 125.0000 "/><path fill="#0000ff" stroke="white" d="M 170.0000,125.0000 L 175.0000,125.0000 A 50.0000,50.0000 0.0000 1 0 150.0000 168.3013 L 147.5000,163.9711 A 45.0000,45.0000 0.0000 1 1 170.0000 125.0000 "/><path fill="#00ff00" stroke="white" d="M 170.0000,125.0000 L 175.0000,125.0000 A 50.0000,50.0000 0.0000 1 0 125.0000 175.0000 L 125.0000,170.0000 A 45.0000,45.0000 0.0000 1 1 170.0000 125.0000 "/><path fill="#00ff00" stroke="white" d="M 170.0000,125.0000 L 175.0000,125.0000 A 50.0000,50.0000 0.0000 1 0 100.0000 168.3013 L 102.5000,163.9712 A 45.0000,45.0000 0.0000 1 1 170.0000 125.0000 "/><path fill="#0000ff" stroke="white" d="M 170.0000,125.0000 L 175.0000,125.0000 A 50.0000,50.0000 0.0000 1 0 81.6987 150.0000 L 86.0289,147.5000 A 45.0000,45.0000 0.0000 1 1 170.0000 125.0000 "/><path fill="#008000" stroke="white" d="M 170.0000,125.0000 L 175.0000,125.0000 A 50.0000,50.0000 0.0000 0 0 75.0000 125.0000 L 80.0000,125.0000 A 45.0000,45.0000 0.0000 0 1 170.0000 125.0000 "/><path fill="#ff0000" stroke="white" d="M 170.0000,125.0000 L 175.0000,125.0000 A 50.0000,50.0000 0.0000 0 0 81.6987 100.0000 L 86.0289,102.5000 A 45.0000,45.0000 0.0000 0 1 170.0000 125.0000 "/><path fill="#0000ff" stroke="white" d="M 170.0000,125.0000 L 175.0000,125.0000 A 50.0000,50.0000 0.0000 0 0 100.0000 81.6987 L 102.5000,86.0289 A 45.0000,45.0000 0.0000 0 1 170.0000 125.0000 "/><path fill="#0000ff" stroke="white" d="M 170.0000,125.0000 L 175.0000,125.0000 A 50.0000,50.0000 0.0000 0 0 125.0000 75.0000 L 125.0000,80.0000 A 45.0000,45.0000 0.0000 0 1 170.0000 125.0000 "/><path fill="#008686" stroke="white" d="M 170.0000,125.0000 L 175.0000,125.0000 A 50.0000,50.0000 0.0000 0 0 150.0000 81.6987 L 147.5000,86.0289 A 45.0000,45.0000 0.0000 0 1 170.0000 125.0000 "/><path fill="#ffff00" stroke="white" d="M 170.0000,125.0000 L 175.0000,125.0000 A 50.0000,50.0000 0.0000 0 0 168.3013 100.0000 L 163.9712,102.5000 A 45.0000,45.0000 0.0000 0 1 170.0000 125.0000 "/><path fill="#0000ff" stroke="white" d="M 165.0000,125.0000 L 170.0000,125.0000 A 45.0000,45.0000 0.0000 1 1 163.9712 102.5000 L 159.6410,105.0000 A 40.0000,40.0000 0.0000 1 0 165.0000 125.0000 "/><path fill="#800080" stroke="white" d="M 165.0000,125.0000 L 170.0000,125.0000 A 45.0000,45.0000 0.0000 1 0 163.9712 147.5000 L 159.6410,145.0000 A 40.0000,40.0000 0.0000 1 1 165.0000 125.0000 "/><path fill="#ffff00" stroke="white" d="M 165.0000,125.0000 L 170.0000,125.0000 A 45.0000,45.0000 0.0000 1 0 147.5000 163.9711 L 145.0000,159.6410 A 40.0000,40.0000 0.0000 1 1 165.0000 125.0000 "/><path fill="#00ff00" stroke="white" d="M 165.0000,125.0000 L 170.0000,125.0000 A 45.0000,45.0000 0.0000 1 0 125.0000 170.0000 L 125.0000,165.0000 A 40.0000,40.0000 0.0000 1 1 165.0000 125.0000 "/><path fill="#800080" stroke="white" d="M 165.0000,125.0000 L 170.0000,125.0000 A 45.0000,45.0000 0.0000 1 0 102.5000 163.9712 L 105.0000,159.6410 A 40.0000,40.0000 0.0000 1 1 165.0000 125.0000 "/><path fill="#ffff00" stroke="white" d="M 165.0000,125.0000 L 170.0000,125.0000 A 45.0000,45.0000 0.0000 1 0 86.0289 147.5000 L 90.3590,145.0000 A 40.0000,40.0000 0.0000 1 1 165.0000 125.0000 "/><path fill="#008000" stroke="white" d="M 165.0000,125.0000 L 170.0000,125.0000 A 45.0000,45.0000 0.0000 0 0 80.0000 125.0000 L 85.0000,125.0000 A 40.0000,40.0000 0.0000 0 1 165.0000 125.0000 "/><path fill="#008000" stroke="white" d="M 165.0000,125.0000 L 170.0000,125.0000 A 45.0000,45.0000 0.0000 0 0 86.0289 102.5000 L 90.3590,105.0000 A 40.0000,40.0000 0.0000 0 1 165.0000 125.0000 "/><path fill="#ffff00" stroke="white" d="M 165.0000,125.0000 L 170.0000,125.0000 A 45.0000,45.0000 0.0000 0 0 102.5000 86.0289 L 105.0000,90.3590 A 40.0000,40.0000 0.0000 0 1 165.0000 125.0000 "/><path fill="#00ff00" stroke="white" d="M 165.0000,125.0000 L 170.0000,125.0000 A 45.0000,45.0000 0.0000 0 0 125.0000 80.0000 L 125.0000,85.0000 A 40.0000,40.0000 0.0000 0 1 165.0000 125.0000 "/><path fill="#008000" stroke="white" d="M 165.0000,125.0000 L 170.0000,125.0000 A 45.0000,45.0000 0.0000 0 0 147.5000 86.0289 L 145.0000,90.3590 A 40.0000,40.0000 0.0000 0 1 165.0000 125.0000 "/><path fill="#ffff00" stroke="white" d="M 165.0000,125.0000 L 170.0000,125.0000 A 45.0000,45.0000 0.0000 0 0 163.9712 102.5000 L 159.6410,105.0000 A 40.0000,40.0000 0.0000 0 1 165.0000 125.0000 "/><path fill="#008686" stroke="white" d="M 160.0000,125.0000 L 165.0000,125.0000 A 40.0000,40.0000 0.0000 1 1 159.6410 105.0000 L 155.3109,107.5000 A 35.0000,35.0000 0.0000 1 0 160.0000 125.0000 "/><path fill="#000080" stroke="white" d="M 160.0000,125.0000 L 165.0000,125.0000 A 40.0000,40.0000 0.0000 1 0 159.6410 145.0000 L 155.3109,142.5000 A 35.0000,35.0000 0.0000 1 1 160.0000 125.0000 "/><path fill="#ffff00" stroke="white" d="M 160.0000,125.0000 L 165.0000,125.0000 A 40.0000,40.0000 0.0000 1 0 145.0000 159.6410 L 142.5000,155.3109 A 35.0000,35.0000 0.0000 1 1 160.0000 125.0000 "/><path fill="#0000ff" stroke="white" d="M 160.0000,125.0000 L 165.0000,125.0000 A 40.0000,40.0000 0.0000 1 0 125.0000 165.0000 L 125.0000,160.0000 A 35.0000,35.0000 0.0000 1 1 160.0000 125.0000 "/><path fill="#000080" stroke="white" d="M 160.0000,125.0000 L 165.0000,125.0000 A 40.0000,40.0000 0.0000 1 0 105.0000 159.6410 L 107.5000,155.3109 A 35.0000,35.0000 0.0000 1 1 160.0000 125.0000 "/><path fill="#ffff00" stroke="white" d="M 160.0000,125.0000 L 165.0000,125.0000 A 40.0000,40.0000 0.0000 1 0 90.3590 145.0000 L 94.6891,142.5000 A 35.0000,35.0000 0.0000 1 1 160.0000 125.0000 "/><path fill="#008000" stroke="white" d="M 160.0000,125.0000 L 165.0000,125.0000 A 40.0000,40.0000 0.0000 0 0 85.0000 125.0000 L 90.0000,125.0000 A 35.0000,35.0000 0.0000 0 1 160.0000 125.0000 "/><path fill="#00ffff" stroke="white" d="M 160.0000,125.0000 L 165.0000,125.0000 A 40.0000,40.0000 0.0000 0 0 90.3590 105.0000 L 94.6891,107.5000 A 35.0000,35.0000 0.0000 0 1 160.0000 125.0000 "/><path fill="#ffff00" stroke="white" d="M 160.0000,125.0000 L 165.0000,125.0000 A 40.0000,40.0000 0.0000 0 0 105.0000 90.3590 L 107.5000,94.6891 A 35.0000,35.0000 0.0000 0 1 160.0000 125.0000 "/><path fill="#00ff00" stroke="white" d="M 160.0000,125.0000 L 165.0000,125.0000 A 40.0000,40.0000 0.0000 0 0 125.0000 85.0000 L 125.0000,90.0000 A 35.0000,35.0000 0.0000 0 1 160.0000 125.0000 "/><path fill="#00ffff" stroke="white" d="M 160.0000,125.0000 L 165.0000,125.0000 A 40.0000,40.0000 0.0000 0 0 145.0000 90.3590 L 142.5000,94.6891 A 35.0000,35.0000 0.0000 0 1 160.0000 125.0000 "/><path fill="#ffff00" stroke="white" d="M 160.0000,125.0000 L 165.0000,125.0000 A 40.0000,40.0000 0.0000 0 0 159.6410 105.0000 L 155.3109,107.5000 A 35.0000,35.0000 0.0000 0 1 160.0000 125.0000 "/><path fill="#00ff00" stroke="white" d="M 155.0000,125.0000 L 160.0000,125.0000 A 35.0000,35.0000 0.0000 1 1 155.3109 107.5000 L 150.9808,110.0000 A 30.0000,30.0000 0.0000 1 0 155.0000 125.0000 "/><path fill="#ff00ff" stroke="white" d="M 155.0000,125.0000 L 160.0000,125.0000 A 35.0000,35.0000 0.0000 1 0 155.3109 142.5000 L 150.9808,140.0000 A 30.0000,30.0000 0.0000 1 1 155.0000 125.0000 "/><path fill="#ffff00" stroke="white" d="M 155.0000,125.0000 L 160.0000,125.0000 A 35.0000,35.0000 0.0000 1 0 142.5000 155.3109 L 140.0000,150.9808 A 30.0000,30.0000 0.0000 1 1 155.0000 125.0000 "/><path fill="#008686" stroke="white" d="M 155.0000,125.0000 L 160.0000,125.0000 A 35.0000,35.0000 0.0000 1 0 125.0000 160.0000 L 125.0000,155.0000 A 30.0000,30.0000 0.0000 1 1 155.0000 125.0000 "/><path fill="#0000ff" stroke="white" d="M 155.0000,125.0000 L 160.0000,125.0000 A 35.0000,35.0000 0.0000 1 0 107.5000 155.3109 L 110.0000,150.9808 A 30.0000,30.0000 0.0000 1 1 155.0000 125.0000 "/><path fill="#ffff00" stroke="white" d="M 155.0000,125.0000 L 160.0000,125.0000 A 35.0000,35.0000 0.0000 1 0 94.6891 142.5000 L 99.0192,140.0000 A 30.0000,30.0000 0.0000 1 1 155.0000 125.0000 "/><path fill="#0000ff" stroke="white" d="M 155.0000,125.0000 L 160.0000,125.0000 A 35.0000,35.0000 0.0000 0 0 90.0000 125.0000 L 95.0000,125.0000 A 30.0000,30.0000 0.0000 0 1 155.0000 125.0000 "/><path fill="#0000ff" stroke="white" d="M 155.0000,125.0000 L 160.0000,125.0000 A 35.0000,35.0000 0.0000 0 0 94.6891 107.5000 L 99.0192,110.0000 A 30.0000,30.0000 0.0000 0 1 155.0000 125.0000 "/><path fill="#ffff00" stroke="white" d="M 155.0000,125.0000 L 160.0000,125.0000 A 35.0000,35.0000 0.0000 0 0 107.5000 94.6891 L 110.0000,99.0192 A 30.0000,30.0000 0.0000 0 1 155.0000 125.0000 "/><path fill="#008686" stroke="white" d="M 155.0000,125.0000 L 160.0000,125.0000 A 35.0000,35.0000 0.0000 0 0 125.0000 90.0000 L 125.0000,95.0000 A 30.0000,30.0000 0.0000 0 1 155.0000 125.0000 "/><path fill="#ffff00" stroke="white" d="M 155.0000,125.0000 L 160.0000,125.0000 A 35.0000,35.0000 0.0000 0 0 142.5000 94.6891 L 140.0000,99.0192 A 30.0000,30.0000 0.0000 0 1 155.0000 125.0000 "/><path fill="#ffff00" stroke="white" d="M 155.0000,125.0000 L 160.0000,125.0000 A 35.0000,35.0000 0.0000 0 0 155.3109 107.5000 L 150.9808,110.0000 A 30.0000,30.0000 0.0000 0 1 155.0000 125.0000 "/><path fill="#008000" stroke="white" d="M 150.0000,125.0000 L 155.0000,125.0000 A 30.0000,30.0000 0.0000 1 1 150.9808 110.0000 L 146.6506,112.5000 A 25.0000,25.0000 0.0000 1 0 150.0000 125.0000 "/><path fill="#ffff00" stroke="white" d="M 150.0000,125.0000 L 155.0000,125.0000 A 30.0000,30.0000 0.0000 1 0 150.9808 140.0000 L 146.6506,137.5000 A 25.0000,25.0000 0.0000 1 1 150.0000 125.0000 "/><path fill="#ffff00" stroke="white" d="M 150.0000,125.0000 L 155.0000,125.0000 A 30.0000,30.0000 0.0000 1 0 140.0000 150.9808 L 137.5000,146.6506 A 25.0000,25.0000 0.0000 1 1 150.0000 125.0000 "/><path fill="#0000ff" stroke="white" d="M 150.0000,125.0000 L 155.0000,125.0000 A 30.0000,30.0000 0.0000 1 0 125.0000 155.0000 L 125.0000,150.0000 A 25.0000,25.0000 0.0000 1 1 150.0000 125.0000 "/><path fill="#ffff00" stroke="white" d="M 150.0000,125.0000 L 155.0000,125.0000 A 30.0000,30.0000 0.0000 1 0 110.0000 150.9808 L 112.5000,146.6506 A 25.0000,25.0000 0.0000 1 1 150.0000 125.0000 "/><path fill="#ffff00" stroke="white" d="M 150.0000,125.0000 L 155.0000,125.0000 A 30.0000,30.0000 0.0000 1 0 99.0192 140.0000 L 103.3494,137.5000 A 25.0000,25.0000 0.0000 1 1 150.0000 125.0000 "/><path fill="#00ff00" stroke="white" d="M 150.0000,125.0000 L 155.0000,125.0000 A 30.0000,30.0000 0.0000 0 0 95.0000 125.0000 L 100.0000,125.0000 A 25.0000,25.0000 0.0000 0 1 150.0000 125.0000 "/><path fill="#00ff00" stroke="white" d="M 150.0000,125.0000 L 155.0000,125.0000 A 30.0000,30.0000 0.0000 0 0 99.0192 110.0000 L 103.3494,112.5000 A 25.0000,25.0000 0.0000 0 1 150.0000 125.0000 "/><path fill="#ffff00" stroke="white" d="M 150.0000,125.0000 L 155.0000,125.0000 A 30.0000,30.0000 0.0000 0 0 110.0000 99.0192 L 112.5000,103.3494 A 25.0000,25.0000 0.0000 0 1 150.0000 125.0000 "/><path fill="#008686" stroke="white" d="M 150.0000,125.0000 L 155.0000,125.0000 A 30.0000,30.0000 0.0000 0 0 125.0000 95.0000 L 125.0000,100.0000 A 25.0000,25.0000 0.0000 0 1 150.0000 125.0000 "/><path fill="#008686" stroke="white" d="M 150.0000,125.0000 L 155.0000,125.0000 A 30.0000,30.0000 0.0000 0 0 140.0000 99.0192 L 137.5000,103.3494 A 25.0000,25.0000 0.0000 0 1 150.0000 125.0000 "/><path fill="#00ff00" stroke="white" d="M 150.0000,125.0000 L 155.0000,125.0000 A 30.0000,30.0000 0.0000 0 0 150.9808 110.0000 L 146.6506,112.5000 A 25.0000,25.0000 0.0000 0 1 150.0000 125.0000 "/><path fill="#008000" stroke="white" d="M 145.0000,125.0000 L 150.0000,125.0000 A 25.0000,25.0000 0.0000 1 1 146.6506 112.5000 L 142.3205,115.0000 A 20.0000,20.0000 0.0000 1 0 145.0000 125.0000 "/><path fill="#008686" stroke="white" d="M 145.0000,125.0000 L 150.0000,125.0000 A 25.0000,25.0000 0.0000 1 0 146.6506 137.5000 L 142.3205,135.0000 A 20.0000,20.0000 0.0000 1 1 145.0000 125.0000 "/><path fill="#00ff00" stroke="white" d="M 145.0000,125.0000 L 150.0000,125.0000 A 25.0000,25.0000 0.0000 1 0 137.5000 146.6506 L 135.0000,142.3205 A 20.0000,20.0000 0.0000 1 1 145.0000 125.0000 "/><path fill="#0000ff" stroke="white" d="M 145.0000,125.0000 L 150.0000,125.0000 A 25.0000,25.0000 0.0000 1 0 125.0000 150.0000 L 125.0000,145.0000 A 20.0000,20.0000 0.0000 1 1 145.0000 125.0000 "/><path fill="#008686" stroke="white" d="M 145.0000,125.0000 L 150.0000,125.0000 A 25.0000,25.0000 0.0000 1 0 112.5000 146.6506 L 115.0000,142.3205 A 20.0000,20.0000 0.0000 1 1 145.0000 125.0000 "/><path fill="#00ff00" stroke="white" d="M 145.0000,125.0000 L 150.0000,125.0000 A 25.0000,25.0000 0.0000 1 0 103.3494 137.5000 L 107.6795,135.0000 A 20.0000,20.0000 0.0000 1 1 145.0000 125.0000 "/><path fill="#00ff00" stroke="white" d="M 145.0000,125.0000 L 150.0000,125.0000 A 25.0000,25.0000 0.0000 0 0 100.0000 125.0000 L 105.0000,125.0000 A 20.0000,20.0000 0.0000 0 1 145.0000 125.0000 "/><path fill="#008686" stroke="white" d="M 145.0000,125.0000 L 150.0000,125.0000 A 25.0000,25.0000 0.0000 0 0 103.3494 112.5000 L 107.6795,115.0000 A 20.0000,20.0000 0.0000 0 1 145.0000 125.0000 "/><path fill="#00ff00" stroke="white" d="M 145.0000,125.0000 L 150.0000,125.0000 A 25.0000,25.0000 0.0000 0 0 112.5000 103.3494 L 115.0000,107.6795 A 20.0000,20.0000 0.0000 0 1 145.0000 125.0000 "/><path fill="#00ff00" stroke="white" d="M 145.0000,125.0000 L 150.0000,125.0000 A 25.0000,25.0000 0.0000 0 0 125.0000 100.0000 L 125.0000,105.0000 A 20.0000,20.0000 0.0000 0 1 145.0000 125.0000 "/><path fill="#800080" stroke="white" d="M 145.0000,125.0000 L 150.0000,125.0000 A 25.0000,25.0000 0.0000 0 0 137.5000 103.3494 L 135.0000,107.6795 A 20.0000,20.0000 0.0000 0 1 145.0000 125.0000 "/><path fill="#00ff00" stroke="white" d="M 145.0000,125.0000 L 150.0000,125.0000 A 25.0000,25.0000 0.0000 0 0 146.6506 112.5000 L 142.3205,115.0000 A 20.0000,20.0000 0.0000 0 1 145.0000 125.0000 "/><path fill="#008686" stroke="white" d="M 140.0000,125.0000 L 145.0000,125.0000 A 20.0000,20.0000 0.0000 1 1 142.3205 115.0000 L 137.9904,117.5000 A 15.0000,15.0000 0.0000 1 0 140.0000 125.0000 "/><path fill="#008000" stroke="white" d="M 140.0000,125.0000 L 145.0000,125.0000 A 20.0000,20.0000 0.0000 1 0 142.3205 135.0000 L 137.9904,132.5000 A 15.0000,15.0000 0.0000 1 1 140.0000 125.0000 "/><path fill="#00ff00" stroke="white" d="M 140.0000,125.0000 L 145.0000,125.0000 A 20.0000,20.0000 0.0000 1 0 135.0000 142.3205 L 132.5000,137.9904 A 15.0000,15.0000 0.0000 1 1 140.0000 125.0000 "/><path fill="#0000ff" stroke="white" d="M 140.0000,125.0000 L 145.0000,125.0000 A 20.0000,20.0000 0.0000 1 0 125.0000 145.0000 L 125.0000,140.0000 A 15.0000,15.0000 0.0000 1 1 140.0000 125.0000 "/><path fill="#008000" stroke="white" d="M 140.0000,125.0000 L 145.0000,125.0000 A 20.0000,20.0000 0.0000 1 0 115.0000 142.3205 L 117.5000,137.9904 A 15.0000,15.0000 0.0000 1 1 140.0000 125.0000 "/><path fill="#00ff00" stroke="white" d="M 140.0000,125.0000 L 145.0000,125.0000 A 20.0000,20.0000 0.0000 1 0 107.6795 135.0000 L 112.0096,132.5000 A 15.0000,15.0000 0.0000 1 1 140.0000 125.0000 "/><path fill="#008000" stroke="white" d="M 140.0000,125.0000 L 145.0000,125.0000 A 20.0000,20.0000 0.0000 0 0 105.0000 125.0000 L 110.0000,125.0000 A 15.0000,15.0000 0.0000 0 1 140.0000 125.0000 "/><path fill="#000080" stroke="white" d="M 140.0000,125.0000 L 145.0000,125.0000 A 20.0000,20.0000 0.0000 0 0 107.6795 115.0000 L 112.0096,117.5000 A 15.0000,15.0000 0.0000 0 1 140.0000 125.0000 "/><path fill="#00ff00" stroke="white" d="M 140.0000,125.0000 L 145.0000,125.0000 A 20.0000,20.0000 0.0000 0 0 115.0000 107.6795 L 117.5000,112.0096 A 15.0000,15.0000 0.0000 0 1 140.0000 125.0000 "/><path fill="#0000ff" stroke="white" d="M 140.0000,125.0000 L 145.0000,125.0000 A 20.0000,20.0000 0.0000 0 0 125.0000 105.0000 L 125.0000,110.0000 A 15.0000,15.0000 0.0000 0 1 140.0000 125.0000 "/><path fill="#000080" stroke="white" d="M 140.0000,125.0000 L 145.0000,125.0000 A 20.0000,20.0000 0.0000 0 0 135.0000 107.6795 L 132.5000,112.0096 A 15.0000,15.0000 0.0000 0 1 140.0000 125.0000 "/><path fill="#00ff00" stroke="white" d="M 140.0000,125.0000 L 145.0000,125.0000 A 20.0000,20.0000 0.0000 0 0 142.3205 115.0000 L 137.9904,117.5000 A 15.0000,15.0000 0.0000 0 1 140.0000 125.0000 "/><path fill="#008000" stroke="white" d="M 135.0000,125.0000 L 140.0000,125.0000 A 15.0000,15.0000 0.0000 1 1 137.9904 117.5000 L 133.6602,120.0000 A 10.0000,10.0000 0.0000 1 0 135.0000 125.0000 "/><path fill="#00ffff" stroke="white" d="M 135.0000,125.0000 L 140.0000,125.0000 A 15.0000,15.0000 0.0000 1 0 137.9904 132.5000 L 133.6602,130.0000 A 10.0000,10.0000 0.0000 1 1 135.0000 125.0000 "/><path fill="#00ff00" stroke="white" d="M 135.0000,125.0000 L 140.0000,125.0000 A 15.0000,15.0000 0.0000 1 0 132.5000 137.9904 L 130.0000,133.6602 A 10.0000,10.0000 0.0000 1 1 135.0000 125.0000 "/><path fill="#00ff00" stroke="white" d="M 135.0000,125.0000 L 140.0000,125.0000 A 15.0000,15.0000 0.0000 1 0 125.0000 140.0000 L 125.0000,135.0000 A 10.0000,10.0000 0.0000 1 1 135.0000 125.0000 "/><path fill="#00ffff" stroke="white" d="M 135.0000,125.0000 L 140.0000,125.0000 A 15.0000,15.0000 0.0000 1 0 117.5000 137.9904 L 120.0000,133.6602 A 10.0000,10.0000 0.0000 1 1 135.0000 125.0000 "/><path fill="#00ff00" stroke="white" d="M 135.0000,125.0000 L 140.0000,125.0000 A 15.0000,15.0000 0.0000 1 0 112.0096 132.5000 L 116.3397,130.0000 A 10.0000,10.0000 0.0000 1 1 135.0000 125.0000 "/><path fill="#008686" stroke="white" d="M 135.0000,125.0000 L 140.0000,125.0000 A 15.0000,15.0000 0.0000 0 0 110.0000 125.0000 L 115.0000,125.0000 A 10.0000,10.0000 0.0000 0 1 135.0000 125.0000 "/><path fill="#ff00ff" stroke="white" d="M 135.0000,125.0000 L 140.0000,125.0000 A 15.0000,15.0000 0.0000 0 0 112.0096 117.5000 L 116.3397,120.0000 A 10.0000,10.0000 0.0000 0 1 135.0000 125.0000 "/><path fill="#00ff00" stroke="white" d="M 135.0000,125.0000 L 140.0000,125.0000 A 15.0000,15.0000 0.0000 0 0 117.5000 112.0096 L 120.0000,116.3397 A 10.0000,10.0000 0.0000 0 1 135.0000 125.0000 "/><path fill="#008686" stroke="white" d="M 135.0000,125.0000 L 140.0000,125.0000 A 15.0000,15.0000 0.0000 0 0 125.0000 110.0000 L 125.0000,115.0000 A 10.0000,10.0000 0.0000 0 1 135.0000 125.0000 "/><path fill="#0000ff" stroke="white" d="M 135.0000,125.0000 L 140.0000,125.0000 A 15.0000,15.0000 0.0000 0 0 132.5000 112.0096 L 130.0000,116.3397 A 10.0000,10.0000 0.0000 0 1 135.0000 125.0000 "/><path fill="#00ff00" stroke="white" d="M 135.0000,125.0000 L 140.0000,125.0000 A 15.0000,15.0000 0.0000 0 0 137.9904 117.5000 L 133.6602,120.0000 A 10.0000,10.0000 0.0000 0 1 135.0000 125.0000 "/><path fill="#008000" stroke="white" d="M 130.0000,125.0000 L 135.0000,125.0000 A 10.0000,10.0000 0.0000 1 1 133.6602 120.0000 L 129.3301,122.5000 A 5.0000,5.0000 0.0000 1 0 130.0000 125.0000 "/><path fill="#0000ff" stroke="white" d="M 130.0000,125.0000 L 135.0000,125.0000 A 10.0000,10.0000 0.0000 1 0 133.6602 130.0000 L 129.3301,127.5000 A 5.0000,5.0000 0.0000 1 1 130.0000 125.0000 "/><path fill="#00ff00" stroke="white" d="M 130.0000,125.0000 L 135.0000,125.0000 A 10.0000,10.0000 0.0000 1 0 130.0000 133.6602 L 127.5000,129.3301 A 5.0000,5.0000 0.0000 1 1 130.0000 125.0000 "/><path fill="#00ff00" stroke="white" d="M 130.0000,125.0000 L 135.0000,125.0000 A 10.0000,10.0000 0.0000 1 0 125.0000 135.0000 L 125.0000,130.0000 A 5.0000,5.0000 0.0000 1 1 130.0000 125.0000 "/><path fill="#0000ff" stroke="white" d="M 130.0000,125.0000 L 135.0000,125.0000 A 10.0000,10.0000 0.0000 1 0 120.0000 133.6602 L 122.5000,129.3301 A 5.0000,5.0000 0.0000 1 1 130.0000 125.0000 "/><path fill="#00ff00" stroke="white" d="M 130.0000,125.0000 L 135.0000,125.0000 A 10.0000,10.0000 0.0000 1 0 116.3397 130.0000 L 120.6699,127.5000 A 5.0000,5.0000 0.0000 1 1 130.0000 125.0000 "/><path fill="#008000" stroke="white" d="M 130.0000,125.0000 L 135.0000,125.0000 A 10.0000,10.0000 0.0000 0 0 115.0000 125.0000 L 120.0000,125.0000 A 5.0000,5.0000 0.0000 0 1 130.0000 125.0000 "/><path fill="#ffff00" stroke="white" d="M 130.0000,125.0000 L 135.0000,125.0000 A 10.0000,10.0000 0.0000 0 0 116.3397 120.0000 L 120.6699,122.5000 A 5.0000,5.0000 0.0000 0 1 130.0000 125.0000 "/><path fill="#00ff00" stroke="white" d="M 130.0000,125.0000 L 135.0000,125.0000 A 10.0000,10.0000 0.0000 0 0 120.0000 116.3397 L 122.5000,120.6699 A 5.0000,5.0000 0.0000 0 1 130.0000 125.0000 "/><path fill="#0000ff" stroke="white" d="M 130.0000,125.0000 L 135.0000,125.0000 A 10.0000,10.0000 0.0000 0 0 125.0000 115.0000 L 125.0000,120.0000 A 5.0000,5.0000 0.0000 0 1 130.0000 125.0000 "/><path fill="#00ff00" stroke="white" d="M 130.0000,125.0000 L 135.0000,125.0000 A 10.0000,10.0000 0.0000 0 0 130.0000 116.3397 L 127.5000,120.6699 A 5.0000,5.0000 0.0000 0 1 130.0000 125.0000 "/><path fill="#00ff00" stroke="white" d="M 130.0000,125.0000 L 135.0000,125.0000 A 10.0000,10.0000 0.0000 0 0 133.6602 120.0000 L 129.3301,122.5000 A 5.0000,5.0000 0.0000 0 1 130.0000 125.0000 "/><path fill="#008686" stroke="white" d="M 125.0000,125.0000 L 130.0000,125.0000 A 5.0000,5.0000 0.0000 1 1 129.3301 122.5000 L 125.0000,125.0000 A 0.0000,0.0000 0.0000 1 0 125.0000 125.0000 "/><path fill="#ff0000" stroke="white" d="M 125.0000,125.0000 L 130.0000,125.0000 A 5.0000,5.0000 0.0000 1 0 129.3301 127.5000 L 125.0000,125.0000 A 0.0000,0.0000 0.0000 1 1 125.0000 125.0000 "/><path fill="#00ff00" stroke="white" d="M 125.0000,125.0000 L 130.0000,125.0000 A 5.0000,5.0000 0.0000 1 0 127.5000 129.3301 L 125.0000,125.0000 A 0.0000,0.0000 0.0000 1 1 125.0000 125.0000 "/><path fill="#008000" stroke="white" d="M 125.0000,125.0000 L 130.0000,125.0000 A 5.0000,5.0000 0.0000 1 0 125.0000 130.0000 L 125.0000,125.0000 A 0.0000,0.0000 0.0000 1 1 125.0000 125.0000 "/><path fill="#ff0000" stroke="white" d="M 125.0000,125.0000 L 130.0000,125.0000 A 5.0000,5.0000 0.0000 1 0 122.5000 129.3301 L 125.0000,125.0000 A 0.0000,0.0000 0.0000 1 1 125.0000 125.0000 "/><path fill="#00ff00" stroke="white" d="M 125.0000,125.0000 L 130.0000,125.0000 A 5.0000,5.0000 0.0000 1 0 120.6699 127.5000 L 125.0000,125.0000 A 0.0000,0.0000 0.0000 1 1 125.0000 125.0000 "/><path fill="#0000ff" stroke="white" d="M 125.0000,125.0000 L 130.0000,125.0000 A 5.0000,5.0000 0.0000 0 0 120.0000 125.0000 L 125.0000,125.0000 A 0.0000,0.0000 0.0000 0 1 125.0000 125.0000 "/><path fill="#ff0000" stroke="white" d="M 125.0000,125.0000 L 130.0000,125.0000 A 5.0000,5.0000 0.0000 0 0 120.6699 122.5000 L 125.0000,125.0000 A 0.0000,0.0000 0.0000 0 1 125.0000 125.0000 "/><path fill="#00ff00" stroke="white" d="M 125.0000,125.0000 L 130.0000,125.0000 A 5.0000,5.0000 0.0000 0 0 122.5000 120.6699 L 125.0000,125.0000 A 0.0000,0.0000 0.0000 0 1 125.0000 125.0000 "/><path fill="#00ff00" stroke="white" d="M 125.0000,125.0000 L 130.0000,125.0000 A 5.0000,5.0000 0.0000 0 0 125.0000 120.0000 L 125.0000,125.0000 A 0.0000,0.0000 0.0000 0 1 125.0000 125.0000 "/><path fill="#ff0000" stroke="white" d="M 125.0000,125.0000 L 130.0000,125.0000 A 5.0000,5.0000 0.0000 0 0 127.5000 120.6699 L 125.0000,125.0000 A 0.0000,0.0000 0.0000 0 1 125.0000 125.0000 "/><path fill="#00ff00" stroke="white" d="M 125.0000,125.0000 L 130.0000,125.0000 A 5.0000,5.0000 0.0000 0 0 129.3301 122.5000 L 125.0000,125.0000 A 0.0000,0.0000 0.0000 0 1 125.0000 125.0000 "/></svg>