<?xml version="1.0" encoding="UTF-8"?>
<!DOCTYPE svg PUBLIC "-//W3C//DTD SVG 1.1//EN"
    "http://www.w3.org/Graphics/SVG/1.1/DTD/svg11.dtd"><svg xmlns="http://www.w3.org/2000/svg" width="60" xmlns:xlink="http://www.w3.org/1999/xlink" height="60" version="1.11.1"><path fill="#559f00" stroke="white" d="M 50.0000,30.0000 L 60.0000,30.0000 A 30.0000,30.0000 0.0000 0 0 45.0000 4.0192 L 40.0000,12.6795 A 20.0000,20.0000 0.0000 0 1 50.0000 30.0000 "/><path fill="#557fff" stroke="white" d="M 50.0000,30.0000 L 60.0000,30.0000 A 30.0000,30.0000 0.0000 0 0 55.9808 15.0000 L 47.3205,20.0000 A 20.0000,20.0000 0.0000 0 1 50.0000 30.0000 "/><path fill="#557faa" stroke="white" d="M 40.0000,30.0000 L 50.0000,30.0000 A 20.0000,20.0000 0.0000 1 1 47.3205 20.0000 L 38.6603,25.0000 A 10.0000,10.0000 0.0000 1 0 40.0000 30.0000 "/><path fill="#557f55" stroke="white" d="M 40.0000,30.0000 L 50.0000,30.0000 A 20.0000,20.0000 0.0000 1 0 47.3205 40.0000 L 38.6603,35.0000 A 10.0000,10.0000 0.0000 1 1 40.0000 30.0000 "/><path fill="#557f00" stroke="white" d="M 40.0000,30.0000 L 50.0000,30.0000 A 20.0000,20.0000 0.0000 1 0 40.0000 47.3205 L 35.0000,38.6602 A 10.0000,10.0000 0.0000 1 1 40.0000 30.0000 "/><path fill="#555fff" stroke="white" d="M 40.0000,30.0000 L 50.0000,30.0000 A 20.0000,20.0000 0.0000 1 0 30.0000 50.0000 L 30.0000,40.0000 A 10.0000,10.0000 0.0000 1 1 40.0000 30.0000 "/><path fill="#555faa" stroke="white" d="M 40.0000,30.0000 L 50.0000,30.0000 A 20.0000,20.0000 0.0000 1 0 20.0000 47.3205 L 25.0000,38.6603 A 10.0000,10.0000 0.0000 1 1 40.0000 30.0000 "/><path fill="#555f55" stroke="white" d="M 40.0000,30.0000 L 50.0000,30.0000 A 20.0000,20.0000 0.0000 1 0 12.6795 40.0000 L 21.3397,35.0000 A 10.0000,10.0000 0.0000 1 1 40.0000 30.0000 "/><path fill="#aa00ff" stroke="white" d="M 40.0000,30.0000 L 50.0000,30.0000 A 20.0000,20.0000 0.0000 0 0 10.0000 30.0000 L 20.0000,30.0000 A 10.0000,10.0000 0.0000 0 1 40.0000 30.0000 "/><path fill="#aa00aa" stroke="white" d="M 40.0000,30.0000 L 50.0000,30.0000 A 20.0000,20.0000 0.0000 0 0 12.6795 20.0000 L 21.3397,25.0000 A 10.0000,10.0000 0.0000 0 1 40.0000 30.0000 "/><path fill="#aa0055" stroke="white" d="M 40.0000,30.0000 L 50.0000,30.0000 A 20.0000,20.0000 0.0000 0 0 20.0000 12.6795 L 25.0000,21.3397 A 10.0000,10.0000 0.0000 0 1 40.0000 30.0000 "/><path fill="#aa00aa" stroke="white" d="M 40.0000,30.0000 L 50.0000,30.0000 A 20.0000,20.0000 0.0000 0 0 30.0000 10.0000 L 30.0000,20.0000 A 10.0000,10.0000 0.0000 0 1 40.0000 30.0000 "/><path fill="#aa0000" stroke="white" d="M 40.0000,30.0000 L 50.0000,30.0000 A 20.0000,20.0000 0.0000 0 0 40.0000 12.6795 L 35.0000,21.3397 A 10.0000,10.0000 0.0000 0 1 40.0000 30.0000 "/><path fill="#7fffff" stroke="white" d="M 40.0000,30.0000 L 50.0000,30.0000 A 20.0000,20.0000 0.0000 0 0 47.3205 20.0000 L 38.6603,25.0000 A 10.0000,10.0000 0.0000 0 1 40.0000 30.0000 "/><path fill="#7fffaa" stroke="white" d="M 30.0000,30.0000 L 40.0000,30.0000 A 10.0000,10.0000 0.0000 1 1 38.6603 25.0000 L 30.0000,30.0000 A 0.0000,0.0000 0.0000 1 0 30.0000 30.0000 "/><path fill="#7fff55" stroke="white" d="M 30.0000,30.0000 L 40.0000,30.0000 A 10.0000,10.0000 0.0000 1 0 38.6603 35.0000 L 30.0000,30.0000 A 0.0000,0.0000 0.0000 1 1 30.0000 30.0000 "/><path fill="#7fff00" stroke="white" d="M 30.0000,30.0000 L 40.0000,30.0000 A 10.0000,10.0000 0.0000 1 0 35.0000 38.6602 L 30.0000,30.0000 A 0.0000,0.0000 0.0000 1 1 30.0000 30.0000 "/><path fill="#7fdfff" stroke="white" d="M 30.0000,30.0000 L 40.0000,30.0000 A 10.0000,10.0000 0.0000 1 0 30.0000 40.0000 L 30.0000,30.0000 A 0.0000,0.0000 0.0000 1 1 30.0000 30.0000 "/><path fill="#7fdfaa" stroke="white" d="M 30.0000,30.0000 L 40.0000,30.0000 A 10.0000,10.0000 0.0000 1 0 25.0000 38.6603 L 30.0000,30.0000 A 0.0000,0.0000 0.0000 1 1 30.0000 30.0000 "/><path fill="#7fdf55" stroke="white" d="M 30.0000,30.0000 L 40.0000,30.0000 A 10.0000,10.0000 0.0000 1 0 21.3397 35.0000 L 30.0000,30.0000 A 0.0000,0.0000 0.0000 1 1 30.0000 30.0000 "/><path fill="#7fdf00" stroke="white" d="M 30.0000,30.0000 L 40.0000,30.0000 A 10.0000,10.0000 0.0000 0 0 20.0000 30.0000 L 30.0000,30.0000 A 0.0000,0.0000 0.0000 0 1 30.0000 30.0000 "/><path fill="#7fbfff" stroke="white" d="M 30.0000,30.0000 L 40.0000,30.0000 A 10.0000,10.0000 0.0000 0 0 21.3397 25.0000 L 30.0000,30.0000 A 0.0000,0.0000 0.0000 0 1 30.0000 30.0000 "/><path fill="#7fbfaa" stroke="white" d="M 30.0000,30.0000 L 40.0000,30.0000 A 10.0000,10.0000 0.0000 0 0 25.0000 21.3397 L 30.0000,30.0000 A 0.0000,0.0000 0.0000 0 1 30.0000 30.0000 "/><path fill="#55dfff" stroke="white" d="M 30.0000,30.0000 L 40.0000,30.0000 A 10.0000,10.0000 0.0000 0 0 30.0000 20.0000 L 30.0000,30.0000 A 0.0000,0.0000 0.0000 0 1 30.0000 30.0000 "/><path fill="#55dfaa" stroke="white" d="M 30.0000,30.0000 L 40.0000,30.0000 A 10.0000,10.0000 0.0000 0 0 35.0000 21.3397 L 30.0000,30.0000 A 0.0000,0.0000 0.0000 0 1 30.0000 30.0000 "/><path fill="#7fbf55" stroke="white" d="M 30.0000,30.0000 L 40.0000,30.0000 A 10.0000,10.0000 0.0000 0 0 38.6603 25.0000 L 30.0000,30.0000 A 0.0000,0.0000 0.0000 0 1 30.0000 30.0000 "/></svg>