<?xml version="1.0" encoding="UTF-8"?>
<!DOCTYPE svg PUBLIC "-//W3C//DTD SVG 1.1//EN"
    "http://www.w3.org/Graphics/SVG/1.1/DTD/svg11.dtd"><svg xmlns="http://www.w3.org/2000/svg" width="230" xmlns:xlink="http://www.w3.org/1999/xlink" height="230" version="1.11.1"><path fill="#00ff00" stroke="white" d="M 225.0000,115.0000 L 230.0000,115.0000 A 115.0000,115.0000 0.0000 1 0 15.4071 172.5000 L 19.7372,170.0000 A 110.0000,110.0000 0.0000 1 1 225.0000 115.0000 "/><path fill="#ff00ff" stroke="white" d="M 225.0000,115.0000 L 230.0000,115.0000 A 115.0000,115.0000 0.0000 0 0 0.0000 115.0000 L 5.0000,115.0000 A 110.0000,110.0000 0.0000 0 1 225.0000 115.0000 "/><path fill="#00ffff" stroke="white" d="M 225.0000,115.0000 L 230.0000,115.0000 A 115.0000,115.0000 0.0000 0 0 15.4071 57.5000 L 19.7372,60.0000 A 110.0000,110.0000 0.0000 0 1 225.0000 115.0000 "/><path fill="#0000ff" stroke="white" d="M 225.0000,115.0000 L 230.0000,115.0000 A 115.0000,115.0000 0.0000 0 0 57.5000 15.4071 L 60.0000,19.7372 A 110.0000,110.0000 0.0000 0 1 225.0000 115.0000 "/><path fill="#ffff00" stroke="white" d="M 225.0000,115.0000 L 230.0000,115.0000 A 115.0000,115.0000 0.0000 0 0 115.0000 0.0000 L 115.0000,5.0000 A 110.0000,110.0000 0.0000 0 1 225.0000 115.0000 "/><path fill="#00ffff" stroke="white" d="M 225.0000,115.0000 L 230.0000,115.0000 A 115.0000,115.0000 0.0000 0 0 172.5000 15.4071 L 170.0000,19.7372 A 110.0000,110.0000 0.0000 0 1 225.0000 115.0000 "/><path fill="#00ff00" stroke="white" d="M 225.0000,115.0000 L 230.0000,115.0000 A 115.0000,115.0000 0.0000 0 0 214.5929 57.5000 L 210.2628,60.0000 A 110.0000,110.0000 0.0000 0 1 225.0000 115.0000 "/><path fill="#ffff00" stroke="white" d="M 220.0000,115.0000 L 225.0000,115.0000 A 110.0000,110.0000 0.0000 1 1 210.2628 60.0000 L 205.9327,62.5000 A 105.0000,105.0000 0.0000 1 0 220.0000 115.0000 "/><path fill="#00ffff" stroke="white" d="M 220.0000,115.0000 L 225.0000,115.0000 A 110.0000,110.0000 0.0000 1 0 210.2628 170.0000 L 205.9327,167.5000 A 105.0000,105.0000 0.0000 1 1 220.0000 115.0000 "/><path fill="#008686" stroke="white" d="M 220.0000,115.0000 L 225.0000,115.0000 A 110.0000,110.0000 0.0000 1 0 170.0000 210.2628 L 167.5000,205.9326 A 105.0000,105.0000 0.0000 1 1 220.0000 115.0000 "/><path fill="#ff0000" stroke="white" d="M 220.0000,115.0000 L 225.0000,115.0000 A 110.0000,110.0000 0.0000 1 0 115.0000 225.0000 L 115.0000,220.0000 A 105.0000,105.0000 0.0000 1 1 220.0000 115.0000 "/><path fill="#00ffff" stroke="white" d="M 220.0000,115.0000 L 225.0000,115.0000 A 110.0000,110.0000 0.0000 1 0 60.0000 210.2628 L 62.5000,205.9327 A 105.0000,105.0000 0.0000 1 1 220.0000 115.0000 "/><path fill="#0000ff" stroke="white" d="M 220.0000,115.0000 L 225.0000,115.0000 A 110.0000,110.0000 0.0000 1 0 19.7372 170.0000 L 24.0673,167.5000 A 105.0000,105.0000 0.0000 1 1 220.0000 115.0000 "/><path fill="#ff0000" stroke="white" d="M 220.0000,115.0000 L 225.0000,115.0000 A 110.0000,110.0000 0.0000 0 0 5.0000 115.0000 L 10.0000,115.0000 A 105.0000,105.0000 0.0000 0 1 220.0000 115.0000 "/><path fill="#00ffff" stroke="white" d="M 220.0000,115.0000 L 225.0000,115.0000 A 110.0000,110.0000 0.0000 0 0 19.7372 60.0000 L 24.0673,62.5000 A 105.0000,105.0000 0.0000 0 1 220.0000 115.0000 "/><path fill="#008686" stroke="white" d="M 220.0000,115.0000 L 225.0000,115.0000 A 110.0000,110.0000 0.0000 0 0 60.0000 19.7372 L 62.5000,24.0673 A 105.0000,105.0000 0.0000 0 1 220.0000 115.0000 "/><path fill="#008686" stroke="white" d="M 220.0000,115.0000 L 225.0000,115.0000 A 110.0000,110.0000 0.0000 0 0 115.0000 5.0000 L 115.0000,10.0000 A 105.0000,105.0000 0.0000 0 1 220.0000 115.0000 "/><path fill="#ff00ff" stroke="white" d="M 220.0000,115.0000 L 225.0000,115.0000 A 110.0000,110.0000 0.0000 0 0 170.0000 19.7372 L 167.5000,24.0673 A 105.0000,105.0000 0.0000 0 1 220.0000 115.0000 "/><path fill="#00ff00" stroke="white" d="M 220.0000,115.0000 L 225.0000,115.0000 A 110.0000,110.0000 0.0000 0 0 210.2628 60.0000 L 205.9327,62.5000 A 105.0000,105.0000 0.0000 0 1 220.0000 115.0000 "/><path fill="#008686" stroke="white" d="M 215.0000,115.0000 L 220.0000,115.0000 A 105.0000,105.0000 0.0000 1 1 205.9327 62.5000 L 201.6025,65.0000 A 100.0000,100.0000 0.0000 1 0 215.0000 115.0000 "/><path fill="#ff00ff" stroke="white" d="M 215.0000,115.0000 L 220.0000,115.0000 A 105.0000,105.0000 0.0000 1 0 205.9327 167.5000 L 201.6026,165.0000 A 100.0000,100.0000 0.0000 1 1 215.0000 115.0000 "/><path fill="#008000" stroke="white" d="M 215.0000,115.0000 L 220.0000,115.0000 A 105.0000,105.0000 0.0000 1 0 167.5000 205.9326 L 165.0000,201.6025 A 100.0000,100.0000 0.0000 1 1 215.0000 115.0000 "/><path fill="#800080" stroke="white" d="M 215.0000,115.0000 L 220.0000,115.0000 A 105.0000,105.0000 0.0000 1 0 115.0000 220.0000 L 115.0000,215.0000 A 100.0000,100.0000 0.0000 1 1 215.0000 115.0000 "/><path fill="#ff00ff" stroke="white" d="M 215.0000,115.0000 L 220.0000,115.0000 A 105.0000,105.0000 0.0000 1 0 62.5000 205.9327 L 65.0000,201.6025 A 100.0000,100.0000 0.0000 1 1 215.0000 115.0000 "/><path fill="#008686" stroke="white" d="M 215.0000,115.0000 L 220.0000,115.0000 A 105.0000,105.0000 0.0000 1 0 24.0673 167.5000 L 28.3975,165.0000 A 100.0000,100.0000 0.0000 1 1 215.0000 115.0000 "/><path fill="#008000" stroke="white" d="M 215.0000,115.0000 L 220.0000,115.0000 A 105.0000,105.0000 0.0000 0 0 10.0000 115.0000 L 15.0000,115.0000 A 100.0000,100.0000 0.0000 0 1 215.0000 115.0000 "/><path fill="#ff00ff" stroke="white" d="M 215.0000,115.0000 L 220.0000,115.0000 A 105.0000,105.0000 0.0000 0 0 24.0673 62.5000 L 28.3974,65.0000 A 100.0000,100.0000 0.0000 0 1 215.0000 115.0000 "/><path fill="#008000" stroke="white" d="M 215.0000,115.0000 L 220.0000,115.0000 A 105.0000,105.0000 0.0000 0 0 62.5000 24.0673 L 65.0000,28.3975 A 100.0000,100.0000 0.0000 0 1 215.0000 115.0000 "/><path fill="#000080" stroke="white" d="M 215.0000,115.0000 L 220.0000,115.0000 A 105.0000,105.0000 0.0000 0 0 115.0000 10.0000 L 115.0000,15.0000 A 100.0000,100.0000 0.0000 0 1 215.0000 115.0000 "/><path fill="#ff00ff" stroke="white" d="M 215.0000,115.0000 L 220.0000,115.0000 A 105.0000,105.0000 0.0000 0 0 167.5000 24.0673 L 165.0000,28.3975 A 100.0000,100.0000 0.0000 0 1 215.0000 115.0000 "/><path fill="#0000ff" stroke="white" d="M 215.0000,115.0000 L 220.0000,115.0000 A 105.0000,105.0000 0.0000 0 0 205.9327 62.5000 L 201.6025,65.0000 A 100.0000,100.0000 0.0000 0 1 215.0000 115.0000 "/><path fill="#000080" stroke="white" d="M 210.0000,115.0000 L 215.0000,115.0000 A 100.0000,100.0000 0.0000 1 1 201.6025 65.0000 L 197.2724,67.5000 A 95.0000,95.0000 0.0000 1 0 210.0000 115.0000 "/><path fill="#ff00ff" stroke="white" d="M 210.0000,115.0000 L 215.0000,115.0000 A 100.0000,100.0000 0.0000 1 0 201.6026 165.0000 L 197.2724,162.5000 A 95.0000,95.0000 0.0000 1 1 210.0000 115.0000 "/><path fill="#00ff00" stroke="white" d="M 210.0000,115.0000 L 215.0000,115.0000 A 100.0000,100.0000 0.0000 1 0 165.0000 201.6025 L 162.5000,197.2724 A 95.0000,95.0000 0.0000 1 1 210.0000 115.0000 "/><path fill="#000080" stroke="white" d="M 210.0000,115.0000 L 215.0000,115.0000 A 100.0000,100.0000 0.0000 1 0 115.0000 215.0000 L 115.0000,210.0000 A 95.0000,95.0000 0.0000 1 1 210.0000 115.0000 "/><path fill="#ff00ff" stroke="white" d="M 210.0000,115.0000 L 215.0000,115.0000 A 100.0000,100.0000 0.0000 1 0 65.0000 201.6025 L 67.5000,197.2724 A 95.0000,95.0000 0.0000 1 1 210.0000 115.0000 "/><path fill="#008000" stroke="white" d="M 210.0000,115.0000 L 215.0000,115.0000 A 100.0000,100.0000 0.0000 1 0 28.3975 165.0000 L 32.7276,162.5000 A 95.0000,95.0000 0.0000 1 1 210.0000 115.0000 "/><path fill="#00ffff" stroke="white" d="M 210.0000,115.0000 L 215.0000,115.0000 A 100.0000,100.0000 0.0000 0 0 15.0000 115.0000 L 20.0000,115.0000 A 95.0000,95.0000 0.0000 0 1 210.0000 115.0000 "/><path fill="#ff00ff" stroke="white" d="M 210.0000,115.0000 L 215.0000,115.0000 A 100.0000,100.0000 0.0000 0 0 28.3974 65.0000 L 32.7276,67.5000 A 95.0000,95.0000 0.0000 0 1 210.0000 115.0000 "/><path fill="#008686" stroke="white" d="M 210.0000,115.0000 L 215.0000,115.0000 A 100.0000,100.0000 0.0000 0 0 65.0000 28.3975 L 67.5000,32.7276 A 95.0000,95.0000 0.0000 0 1 210.0000 115.0000 "/><path fill="#ff00ff" stroke="white" d="M 210.0000,115.0000 L 215.0000,115.0000 A 100.0000,100.0000 0.0000 0 0 115.0000 15.0000 L 115.0000,20.0000 A 95.0000,95.0000 0.0000 0 1 210.0000 115.0000 "/><path fill="#ff00ff" stroke="white" d="M 210.0000,115.0000 L 215.0000,115.0000 A 100.0000,100.0000 0.0000 0 0 165.0000 28.3975 L 162.5000,32.7276 A 95.0000,95.0000 0.0000 0 1 210.0000 115.0000 "/><path fill="#0000ff" stroke="white" d="M 210.0000,115.0000 L 215.0000,115.0000 A 100.0000,100.0000 0.0000 0 0 201.6025 65.0000 L 197.2724,67.5000 A 95.0000,95.0000 0.0000 0 1 210.0000 115.0000 "/><path fill="#ff00ff" stroke="white" d="M 205.0000,115.0000 L 210.0000,115.0000 A 95.0000,95.0000 0.0000 1 1 197.2724 67.5000 L 192.9423,70.0000 A 90.0000,90.0000 0.0000 1 0 205.0000 115.0000 "/><path fill="#ff00ff" stroke="white" d="M 205.0000,115.0000 L 210.0000,115.0000 A 95.0000,95.0000 0.0000 1 0 197.2724 162.5000 L 192.9423,160.0000 A 90.0000,90.0000 0.0000 1 1 205.0000 115.0000 "/><path fill="#008686" stroke="white" d="M 205.0000,115.0000 L 210.0000,115.0000 A 95.0000,95.0000 0.0000 1 0 162.5000 197.2724 L 160.0000,192.9423 A 90.0000,90.0000 0.0000 1 1 205.0000 115.0000 "/><path fill="#0000ff" stroke="white" d="M 205.0000,115.0000 L 210.0000,115.0000 A 95.0000,95.0000 0.0000 1 0 115.0000 210.0000 L 115.0000,205.0000 A 90.0000,90.0000 0.0000 1 1 205.0000 115.0000 "/><path fill="#ff00ff" stroke="white" d="M 205.0000,115.0000 L 210.0000,115.0000 A 95.0000,95.0000 0.0000 1 0 67.5000 197.2724 L 70.0000,192.9423 A 90.0000,90.0000 0.0000 1 1 205.0000 115.0000 "/><path fill="#0000ff" stroke="white" d="M 205.0000,115.0000 L 210.0000,115.0000 A 95.0000,95.0000 0.0000 1 0 32.7276 162.5000 L 37.0577,160.0000 A 90.0000,90.0000 0.0000 1 1 205.0000 115.0000 "/><path fill="#0000ff" stroke="white" d="M 205.0000,115.0000 L 210.0000,115.0000 A 95.0000,95.0000 0.0000 0 0 20.0000 115.0000 L 25.0000,115.0000 A 90.0000,90.0000 0.0000 0 1 205.0000 115.0000 "/><path fill="#ff00ff" stroke="white" d="M 205.0000,115.0000 L 210.0000,115.0000 A 95.0000,95.0000 0.0000 0 0 32.7276 67.5000 L 37.0577,70.0000 A 90.0000,90.0000 0.0000 0 1 205.0000 115.0000 "/><path fill="#00ff00" stroke="white" d="M 205.0000,115.0000 L 210.0000,115.0000 A 95.0000,95.0000 0.0000 0 0 67.5000 32.7276 L 70.0000,37.0577 A 90.0000,90.0000 0.0000 0 1 205.0000 115.0000 "/><path fill="#0000ff" stroke="white" d="M 205.0000,115.0000 L 210.0000,115.0000 A 95.0000,95.0000 0.0000 0 0 115.0000 20.0000 L 115.0000,25.0000 A 90.0000,90.0000 0.0000 0 1 205.0000 115.0000 "/><path fill="#ff00ff" stroke="white" d="M 205.0000,115.0000 L 210.0000,115.0000 A 95.0000,95.0000 0.0000 0 0 162.5000 32.7276 L 160.0000,37.0577 A 90.0000,90.0000 0.0000 0 1 205.0000 115.0000 "/><path fill="#00ff00" stroke="white" d="M 205.0000,115.0000 L 210.0000,115.0000 A 95.0000,95.0000 0.0000 0 0 197.2724 67.5000 L 192.9423,70.0000 A 90.0000,90.0000 0.0000 0 1 205.0000 115.0000 "/><path fill="#ffff00" stroke="white" d="M 200.0000,115.0000 L 205.0000,115.0000 A 90.0000,90.0000 0.0000 1 1 192.9423 70.0000 L 188.6122,72.5000 A 85.0000,85.0000 0.0000 1 0 200.0000 115.0000 "/><path fill="#ff00ff" stroke="white" d="M 200.0000,115.0000 L 205.0000,115.0000 A 90.0000,90.0000 0.0000 1 0 192.9423 160.0000 L 188.6122,157.5000 A 85.0000,85.0000 0.0000 1 1 200.0000 115.0000 "/><path fill="#008686" stroke="white" d="M 200.0000,115.0000 L 205.0000,115.0000 A 90.0000,90.0000 0.0000 1 0 160.0000 192.9423 L 157.5000,188.6122 A 85.0000,85.0000 0.0000 1 1 200.0000 115.0000 "/><path fill="#00ff00" stroke="white" d="M 200.0000,115.0000 L 205.0000,115.0000 A 90.0000,90.0000 0.0000 1 0 115.0000 205.0000 L 115.0000,200.0000 A 85.0000,85.0000 0.0000 1 1 200.0000 115.0000 "/><path fill="#ff00ff" stroke="white" d="M 200.0000,115.0000 L 205.0000,115.0000 A 90.0000,90.0000 0.0000 1 0 70.0000 192.9423 L 72.5000,188.6122 A 85.0000,85.0000 0.0000 1 1 200.0000 115.0000 "/><path fill="#008686" stroke="white" d="M 200.0000,115.0000 L 205.0000,115.0000 A 90.0000,90.0000 0.0000 1 0 37.0577 160.0000 L 41.3879,157.5000 A 85.0000,85.0000 0.0000 1 1 200.0000 115.0000 "/><path fill="#ff0000" stroke="white" d="M 200.0000,115.0000 L 205.0000,115.0000 A 90.0000,90.0000 0.0000 0 0 25.0000 115.0000 L 30.0000,115.0000 A 85.0000,85.0000 0.0000 0 1 200.0000 115.0000 "/><path fill="#ff00ff" stroke="white" d="M 200.0000,115.0000 L 205.0000,115.0000 A 90.0000,90.0000 0.0000 0 0 37.0577 70.0000 L 41.3878,72.5000 A 85.0000,85.0000 0.0000 0 1 200.0000 115.0000 "/><path fill="#00ff00" stroke="white" d="M 200.0000,115.0000 L 205.0000,115.0000 A 90.0000,90.0000 0.0000 0 0 70.0000 37.0577 L 72.5000,41.3878 A 85.0000,85.0000 0.0000 0 1 200.0000 115.0000 "/><path fill="#ff0000" stroke="white" d="M 200.0000,115.0000 L 205.0000,115.0000 A 90.0000,90.0000 0.0000 0 0 115.0000 25.0000 L 115.0000,30.0000 A 85.0000,85.0000 0.0000 0 1 200.0000 115.0000 "/><path fill="#ff00ff" stroke="white" d="M 200.0000,115.0000 L 205.0000,115.0000 A 90.0000,90.0000 0.0000 0 0 160.0000 37.0577 L 157.5000,41.3878 A 85.0000,85.0000 0.0000 0 1 200.0000 115.0000 "/><path fill="#008000" stroke="white" d="M 200.0000,115.0000 L 205.0000,115.0000 A 90.0000,90.0000 0.0000 0 0 192.9423 70.0000 L 188.6122,72.5000 A 85.0000,85.0000 0.0000 0 1 200.0000 115.0000 "/><path fill="#008686" stroke="white" d="M 195.0000,115.0000 L 200.0000,115.0000 A 85.0000,85.0000 0.0000 1 1 188.6122 72.5000 L 184.2820,75.0000 A 80.0000,80.0000 0.0000 1 0 195.0000 115.0000 "/><path fill="#0000ff" stroke="white" d="M 195.0000,115.0000 L 200.0000,115.0000 A 85.0000,85.0000 0.0000 1 0 188.6122 157.5000 L 184.2820,155.0000 A 80.0000,80.0000 0.0000 1 1 195.0000 115.0000 "/><path fill="#008686" stroke="white" d="M 195.0000,115.0000 L 200.0000,115.0000 A 85.0000,85.0000 0.0000 1 0 157.5000 188.6122 L 155.0000,184.2820 A 80.0000,80.0000 0.0000 1 1 195.0000 115.0000 "/><path fill="#800080" stroke="white" d="M 195.0000,115.0000 L 200.0000,115.0000 A 85.0000,85.0000 0.0000 1 0 115.0000 200.0000 L 115.0000,195.0000 A 80.0000,80.0000 0.0000 1 1 195.0000 115.0000 "/><path fill="#0000ff" stroke="white" d="M 195.0000,115.0000 L 200.0000,115.0000 A 85.0000,85.0000 0.0000 1 0 72.5000 188.6122 L 75.0000,184.2820 A 80.0000,80.0000 0.0000 1 1 195.0000 115.0000 "/><path fill="#0000ff" stroke="white" d="M 195.0000,115.0000 L 200.0000,115.0000 A 85.0000,85.0000 0.0000 1 0 41.3879 157.5000 L 45.7180,155.0000 A 80.0000,80.0000 0.0000 1 1 195.0000 115.0000 "/><path fill="#800080" stroke="white" d="M 195.0000,115.0000 L 200.0000,115.0000 A 85.0000,85.0000 0.0000 0 0 30.0000 115.0000 L 35.0000,115.0000 A 80.0000,80.0000 0.0000 0 1 195.0000 115.0000 "/><path fill="#0000ff" stroke="white" d="M 195.0000,115.0000 L 200.0000,115.0000 A 85.0000,85.0000 0.0000 0 0 41.3878 72.5000 L 45.7180,75.0000 A 80.0000,80.0000 0.0000 0 1 195.0000 115.0000 "/><path fill="#008686" stroke="white" d="M 195.0000,115.0000 L 200.0000,115.0000 A 85.0000,85.0000 0.0000 0 0 72.5000 41.3878 L 75.0000,45.7180 A 80.0000,80.0000 0.0000 0 1 195.0000 115.0000 "/><path fill="#008000" stroke="white" d="M 195.0000,115.0000 L 200.0000,115.0000 A 85.0000,85.0000 0.0000 0 0 115.0000 30.0000 L 115.0000,35.0000 A 80.0000,80.0000 0.0000 0 1 195.0000 115.0000 "/><path fill="#0000ff" stroke="white" d="M 195.0000,115.0000 L 200.0000,115.0000 A 85.0000,85.0000 0.0000 0 0 157.5000 41.3878 L 155.0000,45.7180 A 80.0000,80.0000 0.0000 0 1 195.0000 115.0000 "/><path fill="#0000ff" stroke="white" d="M 195.0000,115.0000 L 200.0000,115.0000 A 85.0000,85.0000 0.0000 0 0 188.6122 72.5000 L 184.2820,75.0000 A 80.0000,80.0000 0.0000 0 1 195.0000 115.0000 "/><path fill="#008000" stroke="white" d="M 190.0000,115.0000 L 195.0000,115.0000 A 80.0000,80.0000 0.0000 1 1 184.2820 75.0000 L 179.9519,77.5000 A 75.0000,75.0000 0.0000 1 0 190.0000 115.0000 "/><path fill="#0000ff" stroke="white" d="M 190.0000,115.0000 L 195.0000,115.0000 A 80.0000,80.0000 0.0000 1 0 184.2820 155.0000 L 179.9519,152.5000 A 75.0000,75.0000 0.0000 1 1 190.0000 115.0000 "/><path fill="#008000" stroke="white" d="M 190.0000,115.0000 L 195.0000,115.0000 A 80.0000,80.0000 0.0000 1 0 155.0000 184.2820 L 152.5000,179.9519 A 75.0000,75.0000 0.0000 1 1 190.0000 115.0000 "/><path fill="#000080" stroke="white" d="M 190.0000,115.0000 L 195.0000,115.0000 A 80.0000,80.0000 0.0000 1 0 115.0000 195.0000 L 115.0000,190.0000 A 75.0000,75.0000 0.0000 1 1 190.0000 115.0000 "/><path fill="#0000ff" stroke="white" d="M 190.0000,115.0000 L 195.0000,115.0000 A 80.0000,80.0000 0.0000 1 0 75.0000 184.2820 L 77.5000,179.9519 A 75.0000,75.0000 0.0000 1 1 190.0000 115.0000 "/><path fill="#008686" stroke="white" d="M 190.0000,115.0000 L 195.0000,115.0000 A 80.0000,80.0000 0.0000 1 0 45.7180 155.0000 L 50.0481,152.5000 A 75.0000,75.0000 0.0000 1 1 190.0000 115.0000 "/><path fill="#00ffff" stroke="white" d="M 190.0000,115.0000 L 195.0000,115.0000 A 80.0000,80.0000 0.0000 0 0 35.0000 115.0000 L 40.0000,115.0000 A 75.0000,75.0000 0.0000 0 1 190.0000 115.0000 "/><path fill="#0000ff" stroke="white" d="M 190.0000,115.0000 L 195.0000,115.0000 A 80.0000,80.0000 0.0000 0 0 45.7180 75.0000 L 50.0481,77.5000 A 75.0000,75.0000 0.0000 0 1 190.0000 115.0000 "/><path fill="#0000ff" stroke="white" d="M 190.0000,115.0000 L 195.0000,115.0000 A 80.0000,80.0000 0.0000 0 0 75.0000 45.7180 L 77.5000,50.0481 A 75.0000,75.0000 0.0000 0 1 190.0000 115.0000 "/><path fill="#00ffff" stroke="white" d="M 190.0000,115.0000 L 195.0000,115.0000 A 80.0000,80.0000 0.0000 0 0 115.0000 35.0000 L 115.0000,40.0000 A 75.0000,75.0000 0.0000 0 1 190.0000 115.0000 "/><path fill="#0000ff" stroke="white" d="M 190.0000,115.0000 L 195.0000,115.0000 A 80.0000,80.0000 0.0000 0 0 155.0000 45.7180 L 152.5000,50.0481 A 75.0000,75.0000 0.0000 0 1 190.0000 115.0000 "/><path fill="#008686" stroke="white" d="M 190.0000,115.0000 L 195.0000,115.0000 A 80.0000,80.0000 0.0000 0 0 184.2820 75.0000 L 179.9519,77.5000 A 75.0000,75.0000 0.0000 0 1 190.0000 115.0000 "/><path fill="#ff00ff" stroke="white" d="M 185.0000,115.0000 L 190.0000,115.0000 A 75.0000,75.0000 0.0000 1 1 179.9519 77.5000 L 175.6218,80.0000 A 70.0000,70.0000 0.0000 1 0 185.0000 115.0000 "/><path fill="#0000ff" stroke="white" d="M 185.0000,115.0000 L 190.0000,115.0000 A 75.0000,75.0000 0.0000 1 0 179.9519 152.5000 L 175.6218,150.0000 A 70.0000,70.0000 0.0000 1 1 185.0000 115.0000 "/><path fill="#008000" stroke="white" d="M 185.0000,115.0000 L 190.0000,115.0000 A 75.0000,75.0000 0.0000 1 0 152.5000 179.9519 L 150.0000,175.6218 A 70.0000,70.0000 0.0000 1 1 185.0000 115.0000 "/><path fill="#ff00ff" stroke="white" d="M 185.0000,115.0000 L 190.0000,115.0000 A 75.0000,75.0000 0.0000 1 0 115.0000 190.0000 L 115.0000,185.0000 A 70.0000,70.0000 0.0000 1 1 185.0000 115.0000 "/><path fill="#0000ff" stroke="white" d="M 185.0000,115.0000 L 190.0000,115.0000 A 75.0000,75.0000 0.0000 1 0 77.5000 179.9519 L 80.0000,175.6218 A 70.0000,70.0000 0.0000 1 1 185.0000 115.0000 "/><path fill="#008000" stroke="white" d="M 185.0000,115.0000 L 190.0000,115.0000 A 75.0000,75.0000 0.0000 1 0 50.0481 152.5000 L 54.3782,150.0000 A 70.0000,70.0000 0.0000 1 1 185.0000 115.0000 "/><path fill="#0000ff" stroke="white" d="M 185.0000,115.0000 L 190.0000,115.0000 A 75.0000,75.0000 0.0000 0 0 40.0000 115.0000 L 45.0000,115.0000 A 70.0000,70.0000 0.0000 0 1 185.0000 115.0000 "/><path fill="#0000ff" stroke="white" d="M 185.0000,115.0000 L 190.0000,115.0000 A 75.0000,75.0000 0.0000 0 0 50.0481 77.5000 L 54.3782,80.0000 A 70.0000,70.0000 0.0000 0 1 185.0000 115.0000 "/><path fill="#00ff00" stroke="white" d="M 185.0000,115.0000 L 190.0000,115.0000 A 75.0000,75.0000 0.0000 0 0 77.5000 50.0481 L 80.0000,54.3782 A 70.0000,70.0000 0.0000 0 1 185.0000 115.0000 "/><path fill="#0000ff" stroke="white" d="M 185.0000,115.0000 L 190.0000,115.0000 A 75.0000,75.0000 0.0000 0 0 115.0000 40.0000 L 115.0000,45.0000 A 70.0000,70.0000 0.0000 0 1 185.0000 115.0000 "/><path fill="#0000ff" stroke="white" d="M 185.0000,115.0000 L 190.0000,115.0000 A 75.0000,75.0000 0.0000 0 0 152.5000 50.0481 L 150.0000,54.3782 A 70.0000,70.0000 0.0000 0 1 185.0000 115.0000 "/><path fill="#008000" stroke="white" d="M 185.0000,115.0000 L 190.0000,115.0000 A 75.0000,75.0000 0.0000 0 0 179.9519 77.5000 L 175.6218,80.0000 A 70.0000,70.0000 0.0000 0 1 185.0000 115.0000 "/><path fill="#00ff00" stroke="white" d="M 180.0000,115.0000 L 185.0000,115.0000 A 70.0000,70.0000 0.0000 1 1 175.6218 80.0000 L 171.2917,82.5000 A 65.0000,65.0000 0.0000 1 0 180.0000 115.0000 "/><path fill="#0000ff" stroke="white" d="M 180.0000,115.0000 L 185.0000,115.0000 A 70.0000,70.0000 0.0000 1 0 175.6218 150.0000 L 171.2917,147.5000 A 65.0000,65.0000 0.0000 1 1 180.0000 115.0000 "/><path fill="#0000ff" stroke="white" d="M 180.0000,115.0000 L 185.0000,115.0000 A 70.0000,70.0000 0.0000 1 0 150.0000 175.6218 L 147.5000,171.2916 A 65.0000,65.0000 0.0000 1 1 180.0000 115.0000 "/><path fill="#00ff00" stroke="white" d="M 180.0000,115.0000 L 185.0000,115.0000 A 70.0000,70.0000 0.0000 1 0 115.0000 185.0000 L 115.0000,180.0000 A 65.0000,65.0000 0.0000 1 1 180.0000 115.0000 "/><path fill="#0000ff" stroke="white" d="M 180.0000,115.0000 L 185.0000,115.0000 A 70.0000,70.0000 0.0000 1 0 80.0000 175.6218 L 82.5000,171.2917 A 65.0000,65.0000 0.0000 1 1 180.0000 115.0000 "/><path fill="#00ff00" stroke="white" d="M 180.0000,115.0000 L 185.0000,115.0000 A 70.0000,70.0000 0.0000 1 0 54.3782 150.0000 L 58.7084,147.5000 A 65.0000,65.0000 0.0000 1 1 180.0000 115.0000 "/><path fill="#00ff00" stroke="white" d="M 180.0000,115.0000 L 185.0000,115.0000 A 70.0000,70.0000 0.0000 0 0 45.0000 115.0000 L 50.0000,115.0000 A 65.0000,65.0000 0.0000 0 1 180.0000 115.0000 "/><path fill="#0000ff" stroke="white" d="M 180.0000,115.0000 L 185.0000,115.0000 A 70.0000,70.0000 0.0000 0 0 54.3782 80.0000 L 58.7083,82.5000 A 65.0000,65.0000 0.0000 0 1 180.0000 115.0000 "/><path fill="#008000" stroke="white" d="M 180.0000,115.0000 L 185.0000,115.0000 A 70.0000,70.0000 0.0000 0 0 80.0000 54.3782 L 82.5000,58.7084 A 65.0000,65.0000 0.0000 0 1 180.0000 115.0000 "/><path fill="#ff0000" stroke="white" d="M 180.0000,115.0000 L 185.0000,115.0000 A 70.0000,70.0000 0.0000 0 0 115.0000 45.0000 L 115.0000,50.0000 A 65.0000,65.0000 0.0000 0 1 180.0000 115.0000 "/><path fill="#0000ff" stroke="white" d="M 180.0000,115.0000 L 185.0000,115.0000 A 70.0000,70.0000 0.0000 0 0 150.0000 54.3782 L 147.5000,58.7083 A 65.0000,65.0000 0.0000 0 1 180.0000 115.0000 "/><path fill="#0000ff" stroke="white" d="M 180.0000,115.0000 L 185.0000,115.0000 A 70.0000,70.0000 0.0000 0 0 175.6218 80.0000 L 171.2917,82.5000 A 65.0000,65.0000 0.0000 0 1 180.0000 115.0000 "/><path fill="#008686" stroke="white" d="M 175.0000,115.0000 L 180.0000,115.0000 A 65.0000,65.0000 0.0000 1 1 171.2917 82.5000 L 166.9615,85.0000 A 60.0000,60.0000 0.0000 1 0 175.0000 115.0000 "/><path fill="#ffff00" stroke="white" d="M 175.0000,115.0000 L 180.0000,115.0000 A 65.0000,65.0000 0.0000 1 0 171.2917 147.5000 L 166.9615,145.0000 A 60.0000,60.0000 0.0000 1 1 175.0000 115.0000 "/><path fill="#0000ff" stroke="white" d="M 175.0000,115.0000 L 180.0000,115.0000 A 65.0000,65.0000 0.0000 1 0 147.5000 171.2916 L 145.0000,166.9615 A 60.0000,60.0000 0.0000 1 1 175.0000 115.0000 "/><path fill="#800080" stroke="white" d="M 175.0000,115.0000 L 180.0000,115.0000 A 65.0000,65.0000 0.0000 1 0 115.0000 180.0000 L 115.0000,175.0000 A 60.0000,60.0000 0.0000 1 1 175.0000 115.0000 "/><path fill="#ffff00" stroke="white" d="M 175.0000,115.0000 L 180.0000,115.0000 A 65.0000,65.0000 0.0000 1 0 82.5000 171.2917 L 85.0000,166.9615 A 60.0000,60.0000 0.0000 1 1 175.0000 115.0000 "/><path fill="#00ff00" stroke="white" d="M 175.0000,115.0000 L 180.0000,115.0000 A 65.0000,65.0000 0.0000 1 0 58.7084 147.5000 L 63.0385,145.0000 A 60.0000,60.0000 0.0000 1 1 175.0000 115.0000 "/><path fill="#800080" stroke="white" d="M 175.0000,115.0000 L 180.0000,115.0000 A 65.0000,65.0000 0.0000 0 0 50.0000 115.0000 L 55.0000,115.0000 A 60.0000,60.0000 0.0000 0 1 175.0000 115.0000 "/><path fill="#ffff00" stroke="white" d="M 175.0000,115.0000 L 180.0000,115.0000 A 65.0000,65.0000 0.0000 0 0 58.7083 82.5000 L 63.0385,85.0000 A 60.0000,60.0000 0.0000 0 1 175.0000 115.0000 "/><path fill="#008000" stroke="white" d="M 175.0000,115.0000 L 180.0000,115.0000 A 65.0000,65.0000 0.0000 0 0 82.5000 58.7084 L 85.0000,63.0385 A 60.0000,60.0000 0.0000 0 1 175.0000 115.0000 "/><path fill="#008000" stroke="white" d="M 175.0000,115.0000 L 180.0000,115.0000 A 65.0000,65.0000 0.0000 0 0 115.0000 50.0000 L 115.0000,55.0000 A 60.0000,60.0000 0.0000 0 1 175.0000 115.0000 "/><path fill="#ffff00" stroke="white" d="M 175.0000,115.0000 L 180.0000,115.0000 A 65.0000,65.0000 0.0000 0 0 147.5000 58.7083 L 145.0000,63.0385 A 60.0000,60.0000 0.0000 0 1 175.0000 115.0000 "/><path fill="#00ff00" stroke="white" d="M 175.0000,115.0000 L 180.0000,115.0000 A 65.0000,65.0000 0.0000 0 0 171.2917 82.5000 L 166.9615,85.0000 A 60.0000,60.0000 0.0000 0 1 175.0000 115.0000 "/><path fill="#008000" stroke="white" d="M 170.0000,115.0000 L 175.0000,115.0000 A 60.0000,60.0000 0.0000 1 1 166.9615 85.0000 L 162.6314,87.5000 A 55.0000,55.0000 0.0000 1 0 170.0000 115.0000 "/><path fill="#ffff00" stroke="white" d="M 170.0000,115.0000 L 175.0000,115.0000 A 60.0000,60.0000 0.0000 1 0 166.9615 145.0000 L 162.6314,142.5000 A 55.0000,55.0000 0.0000 1 1 170.0000 115.0000 "/><path fill="#008686" stroke="white" d="M 170.0000,115.0000 L 175.0000,115.0000 A 60.0000,60.0000 0.0000 1 0 145.0000 166.9615 L 142.5000,162.6314 A 55.0000,55.0000 0.0000 1 1 170.0000 115.0000 "/><path fill="#000080" stroke="white" d="M 170.0000,115.0000 L 175.0000,115.0000 A 60.0000,60.0000 0.0000 1 0 115.0000 175.0000 L 115.0000,170.0000 A 55.0000,55.0000 0.0000 1 1 170.0000 115.0000 "/><path fill="#ffff00" stroke="white" d="M 170.0000,115.0000 L 175.0000,115.0000 A 60.0000,60.0000 0.0000 1 0 85.0000 166.9615 L 87.5000,162.6314 A 55.0000,55.0000 0.0000 1 1 170.0000 115.0000 "/><path fill="#0000ff" stroke="white" d="M 170.0000,115.0000 L 175.0000,115.0000 A 60.0000,60.0000 0.0000 1 0 63.0385 145.0000 L 67.3686,142.5000 A 55.0000,55.0000 0.0000 1 1 170.0000 115.0000 "/><path fill="#000080" stroke="white" d="M 170.0000,115.0000 L 175.0000,115.0000 A 60.0000,60.0000 0.0000 0 0 55.0000 115.0000 L 60.0000,115.0000 A 55.0000,55.0000 0.0000 0 1 170.0000 115.0000 "/><path fill="#ffff00" stroke="white" d="M 170.0000,115.0000 L 175.0000,115.0000 A 60.0000,60.0000 0.0000 0 0 63.0385 85.0000 L 67.3686,87.5000 A 55.0000,55.0000 0.0000 0 1 170.0000 115.0000 "/><path fill="#008000" stroke="white" d="M 170.0000,115.0000 L 175.0000,115.0000 A 60.0000,60.0000 0.0000 0 0 85.0000 63.0385 L 87.5000,67.3686 A 55.0000,55.0000 0.0000 0 1 170.0000 115.0000 "/><path fill="#00ffff" stroke="white" d="M 170.0000,115.0000 L 175.0000,115.0000 A 60.0000,60.0000 0.0000 0 0 115.0000 55.0000 L 115.0000,60.0000 A 55.0000,55.0000 0.0000 0 1 170.0000 115.0000 "/><path fill="#ffff00" stroke="white" d="M 170.0000,115.0000 L 175.0000,115.0000 A 60.0000,60.0000 0.0000 0 0 145.0000 63.0385 L 142.5000,67.3686 A 55.0000,55.0000 0.0000 0 1 170.0000 115.0000 "/><path fill="#00ff00" stroke="white" d="M 170.0000,115.0000 L 175.0000,115.0000 A 60.0000,60.0000 0.0000 0 0 166.9615 85.0000 L 162.6314,87.5000 A 55.0000,55.0000 0.0000 0 1 170.0000 115.0000 "/><path fill="#00ffff" stroke="white" d="M 165.0000,115.0000 L 170.0000,115.0000 A 55.0000,55.0000 0.0000 1 1 162.6314 87.5000 L 158.3013,90.0000 A 50.0000,50.0000 0.0000 1 0 165.0000 115.0000 "/><path fill="#ffff00" stroke="white" d="M 165.0000,115.0000 L 170.0000,115.0000 A 55.0000,55.0000 0.0000 1 0 162.6314 142.5000 L 158.3013,140.0000 A 50.0000,50.0000 0.0000 1 1 165.0000 115.0000 "/><path fill="#00ff00" stroke="white" d="M 165.0000,115.0000 L 170.0000,115.0000 A 55.0000,55.0000 0.0000 1 0 142.5000 162.6314 L 140.0000,158.3013 A 50.0000,50.0000 0.0000 1 1 165.0000 115.0000 "/><path fill="#ff00ff" stroke="white" d="M 165.0000,115.0000 L 170.0000,115.0000 A 55.0000,55.0000 0.0000 1 0 115.0000 170.0000 L 115.0000,165.0000 A 50.0000,50.0000 0.0000 1 1 165.0000 115.0000 "/><path fill="#ffff00" stroke="white" d="M 165.0000,115.0000 L 170.0000,115.0000 A 55.0000,55.0000 0.0000 1 0 87.5000 162.6314 L 90.0000,158.3013 A 50.0000,50.0000 0.0000 1 1 165.0000 115.0000 "/><path fill="#008686" stroke="white" d="M 165.0000,115.0000 L 170.0000,115.0000 A 55.0000,55.0000 0.0000 1 0 67.3686 142.5000 L 71.6987,140.0000 A 50.0000,50.0000 0.0000 1 1 165.0000 115.0000 "/><path fill="#0000ff" stroke="white" d="M 165.0000,115.0000 L 170.0000,115.0000 A 55.0000,55.0000 0.0000 0 0 60.0000 115.0000 L 65.0000,115.0000 A 50.0000,50.0000 0.0000 0 1 165.0000 115.0000 "/><path fill="#ffff00" stroke="white" d="M 165.0000,115.0000 L 170.0000,115.0000 A 55.0000,55.0000 0.0000 0 0 67.3686 87.5000 L 71.6987,90.0000 A 50.0000,50.0000 0.0000 0 1 165.0000 115.0000 "/><path fill="#0000ff" stroke="white" d="M 165.0000,115.0000 L 170.0000,115.0000 A 55.0000,55.0000 0.0000 0 0 87.5000 67.3686 L 90.0000,71.6987 A 50.0000,50.0000 0.0000 0 1 165.0000 115.0000 "/><path fill="#0000ff" stroke="white" d="M 165.0000,115.0000 L 170.0000,115.0000 A 55.0000,55.0000 0.0000 0 0 115.0000 60.0000 L 115.0000,65.0000 A 50.0000,50.0000 0.0000 0 1 165.0000 115.0000 "/><path fill="#ffff00" stroke="white" d="M 165.0000,115.0000 L 170.0000,115.0000 A 55.0000,55.0000 0.0000 0 0 142.5000 67.3686 L 140.0000,71.6987 A 50.0000,50.0000 0.0000 0 1 165.0000 115.0000 "/><path fill="#008686" stroke="white" d="M 165.0000,115.0000 L 170.0000,115.0000 A 55.0000,55.0000 0.0000 0 0 162.6314 87.5000 L 158.3013,90.0000 A 50.0000,50.0000 0.0000 0 1 165.0000 115.0000 "/><path fill="#ffff00" stroke="white" d="M 160.0000,115.0000 L 165.0000,115.0000 A 50.0000,50.0000 0.0000 1 1 158.3013 90.0000 L 153.9712,92.5000 A 45.0000,45.0000 0.0000 1 0 160.0000 115.0000 "/><path fill="#ffff00" stroke="white" d="M 160.0000,115.0000 L 165.0000,115.0000 A 50.0000,50.0000 0.0000 1 0 158.3013 140.0000 L 153.9712,137.5000 A 45.0000,45.0000 0.0000 1 1 160.0000 115.0000 "/><path fill="#008000" stroke="white" d="M 160.0000,115.0000 L 165.0000,115.0000 A 50.0000,50.0000 0.0000 1 0 140.0000 158.3013 L 137.5000,153.9711 A 45.0000,45.0000 0.0000 1 1 160.0000 115.0000 "/><path fill="#ffff00" stroke="white" d="M 160.0000,115.0000 L 165.0000,115.0000 A 50.0000,50.0000 0.0000 1 0 115.0000 165.0000 L 115.0000,160.0000 A 45.0000,45.0000 0.0000 1 1 160.0000 115.0000 "/><path fill="#ffff00" stroke="white" d="M 160.0000,115.0000 L 165.0000,115.0000 A 50.0000,50.0000 0.0000 1 0 90.0000 158.3013 L 92.5000,153.9712 A 45.0000,45.0000 0.0000 1 1 160.0000 115.0000 "/><path fill="#0000ff" stroke="white" d="M 160.0000,115.0000 L 165.0000,115.0000 A 50.0000,50.0000 0.0000 1 0 71.6987 140.0000 L 76.0289,137.5000 A 45.0000,45.0000 0.0000 1 1 160.0000 115.0000 "/><path fill="#ffff00" stroke="white" d="M 160.0000,115.0000 L 165.0000,115.0000 A 50.0000,50.0000 0.0000 0 0 65.0000 115.0000 L 70.0000,115.0000 A 45.0000,45.0000 0.0000 0 1 160.0000 115.0000 "/><path fill="#ffff00" stroke="white" d="M 160.0000,115.0000 L 165.0000,115.0000 A 50.0000,50.0000 0.0000 0 0 71.6987 90.0000 L 76.0289,92.5000 A 45.0000,45.0000 0.0000 0 1 160.0000 115.0000 "/><path fill="#00ff00" stroke="white" d="M 160.0000,115.0000 L 165.0000,115.0000 A 50.0000,50.0000 0.0000 0 0 90.0000 71.6987 L 92.5000,76.0289 A 45.0000,45.0000 0.0000 0 1 160.0000 115.0000 "/><path fill="#00ff00" stroke="white" d="M 160.0000,115.0000 L 165.0000,115.0000 A 50.0000,50.0000 0.0000 0 0 115.0000 65.0000 L 115.0000,70.0000 A 45.0000,45.0000 0.0000 0 1 160.0000 115.0000 "/><path fill="#ffff00" stroke="white" d="M 160.0000,115.0000 L 165.0000,115.0000 A 50.0000,50.0000 0.0000 0 0 140.0000 71.6987 L 137.5000,76.0289 A 45.0000,45.0000 0.0000 0 1 160.0000 115.0000 "/><path fill="#008686" stroke="white" d="M 160.0000,115.0000 L 165.0000,115.0000 A 50.0000,50.0000 0.0000 0 0 158.3013 90.0000 L 153.9712,92.5000 A 45.0000,45.0000 0.0000 0 1 160.0000 115.0000 "/><path fill="#008686" stroke="white" d="M 155.0000,115.0000 L 160.0000,115.0000 A 45.0000,45.0000 0.0000 1 1 153.9712 92.5000 L 149.6410,95.0000 A 40.0000,40.0000 0.0000 1 0 155.0000 115.0000 "/><path fill="#00ff00" stroke="white" d="M 155.0000,115.0000 L 160.0000,115.0000 A 45.0000,45.0000 0.0000 1 0 153.9712 137.5000 L 149.6410,135.0000 A 40.0000,40.0000 0.0000 1 1 155.0000 115.0000 "/><path fill="#008000" stroke="white" d="M 155.0000,115.0000 L 160.0000,115.0000 A 45.0000,45.0000 0.0000 1 0 137.5000 153.9711 L 135.0000,149.6410 A 40.0000,40.0000 0.0000 1 1 155.0000 115.0000 "/><path fill="#008686" stroke="white" d="M 155.0000,115.0000 L 160.0000,115.0000 A 45.0000,45.0000 0.0000 1 0 115.0000 160.0000 L 115.0000,155.0000 A 40.0000,40.0000 0.0000 1 1 155.0000 115.0000 "/><path fill="#00ff00" stroke="white" d="M 155.0000,115.0000 L 160.0000,115.0000 A 45.0000,45.0000 0.0000 1 0 92.5000 153.9712 L 95.0000,149.6410 A 40.0000,40.0000 0.0000 1 1 155.0000 115.0000 "/><path fill="#0000ff" stroke="white" d="M 155.0000,115.0000 L 160.0000,115.0000 A 45.0000,45.0000 0.0000 1 0 76.0289 137.5000 L 80.3590,135.0000 A 40.0000,40.0000 0.0000 1 1 155.0000 115.0000 "/><path fill="#008686" stroke="white" d="M 155.0000,115.0000 L 160.0000,115.0000 A 45.0000,45.0000 0.0000 0 0 70.0000 115.0000 L 75.0000,115.0000 A 40.0000,40.0000 0.0000 0 1 155.0000 115.0000 "/><path fill="#00ff00" stroke="white" d="M 155.0000,115.0000 L 160.0000,115.0000 A 45.0000,45.0000 0.0000 0 0 76.0289 92.5000 L 80.3590,95.0000 A 40.0000,40.0000 0.0000 0 1 155.0000 115.0000 "/><path fill="#00ff00" stroke="white" d="M 155.0000,115.0000 L 160.0000,115.0000 A 45.0000,45.0000 0.0000 0 0 92.5000 76.0289 L 95.0000,80.3590 A 40.0000,40.0000 0.0000 0 1 155.0000 115.0000 "/><path fill="#008686" stroke="white" d="M 155.0000,115.0000 L 160.0000,115.0000 A 45.0000,45.0000 0.0000 0 0 115.0000 70.0000 L 115.0000,75.0000 A 40.0000,40.0000 0.0000 0 1 155.0000 115.0000 "/><path fill="#00ff00" stroke="white" d="M 155.0000,115.0000 L 160.0000,115.0000 A 45.0000,45.0000 0.0000 0 0 137.5000 76.0289 L 135.0000,80.3590 A 40.0000,40.0000 0.0000 0 1 155.0000 115.0000 "/><path fill="#00ff00" stroke="white" d="M 155.0000,115.0000 L 160.0000,115.0000 A 45.0000,45.0000 0.0000 0 0 153.9712 92.5000 L 149.6410,95.0000 A 40.0000,40.0000 0.0000 0 1 155.0000 115.0000 "/><path fill="#800080" stroke="white" d="M 150.0000,115.0000 L 155.0000,115.0000 A 40.0000,40.0000 0.0000 1 1 149.6410 95.0000 L 145.3109,97.5000 A 35.0000,35.0000 0.0000 1 0 150.0000 115.0000 "/><path fill="#00ff00" stroke="white" d="M 150.0000,115.0000 L 155.0000,115.0000 A 40.0000,40.0000 0.0000 1 0 149.6410 135.0000 L 145.3109,132.5000 A 35.0000,35.0000 0.0000 1 1 150.0000 115.0000 "/><path fill="#008686" stroke="white" d="M 150.0000,115.0000 L 155.0000,115.0000 A 40.0000,40.0000 0.0000 1 0 135.0000 149.6410 L 132.5000,145.3109 A 35.0000,35.0000 0.0000 1 1 150.0000 115.0000 "/><path fill="#008000" stroke="white" d="M 150.0000,115.0000 L 155.0000,115.0000 A 40.0000,40.0000 0.0000 1 0 115.0000 155.0000 L 115.0000,150.0000 A 35.0000,35.0000 0.0000 1 1 150.0000 115.0000 "/><path fill="#00ff00" stroke="white" d="M 150.0000,115.0000 L 155.0000,115.0000 A 40.0000,40.0000 0.0000 1 0 95.0000 149.6410 L 97.5000,145.3109 A 35.0000,35.0000 0.0000 1 1 150.0000 115.0000 "/><path fill="#0000ff" stroke="white" d="M 150.0000,115.0000 L 155.0000,115.0000 A 40.0000,40.0000 0.0000 1 0 80.3590 135.0000 L 84.6891,132.5000 A 35.0000,35.0000 0.0000 1 1 150.0000 115.0000 "/><path fill="#008000" stroke="white" d="M 150.0000,115.0000 L 155.0000,115.0000 A 40.0000,40.0000 0.0000 0 0 75.0000 115.0000 L 80.0000,115.0000 A 35.0000,35.0000 0.0000 0 1 150.0000 115.0000 "/><path fill="#00ff00" stroke="white" d="M 150.0000,115.0000 L 155.0000,115.0000 A 40.0000,40.0000 0.0000 0 0 80.3590 95.0000 L 84.6891,97.5000 A 35.0000,35.0000 0.0000 0 1 150.0000 115.0000 "/><path fill="#008000" stroke="white" d="M 150.0000,115.0000 L 155.0000,115.0000 A 40.0000,40.0000 0.0000 0 0 95.0000 80.3590 L 97.5000,84.6891 A 35.0000,35.0000 0.0000 0 1 150.0000 115.0000 "/><path fill="#000080" stroke="white" d="M 150.0000,115.0000 L 155.0000,115.0000 A 40.0000,40.0000 0.0000 0 0 115.0000 75.0000 L 115.0000,80.0000 A 35.0000,35.0000 0.0000 0 1 150.0000 115.0000 "/><path fill="#00ff00" stroke="white" d="M 150.0000,115.0000 L 155.0000,115.0000 A 40.0000,40.0000 0.0000 0 0 135.0000 80.3590 L 132.5000,84.6891 A 35.0000,35.0000 0.0000 0 1 150.0000 115.0000 "/><path fill="#0000ff" stroke="white" d="M 150.0000,115.0000 L 155.0000,115.0000 A 40.0000,40.0000 0.0000 0 0 149.6410 95.0000 L 145.3109,97.5000 A 35.0000,35.0000 0.0000 0 1 150.0000 115.0000 "/><path fill="#000080" stroke="white" d="M 145.0000,115.0000 L 150.0000,115.0000 A 35.0000,35.0000 0.0000 1 1 145.3109 97.5000 L 140.9808,100.0000 A 30.0000,30.0000 0.0000 1 0 145.0000 115.0000 "/><path fill="#00ff00" stroke="white" d="M 145.0000,115.0000 L 150.0000,115.0000 A 35.0000,35.0000 0.0000 1 0 145.3109 132.5000 L 140.9808,130.0000 A 30.0000,30.0000 0.0000 1 1 145.0000 115.0000 "/><path fill="#008000" stroke="white" d="M 145.0000,115.0000 L 150.0000,115.0000 A 35.0000,35.0000 0.0000 1 0 132.5000 145.3109 L 130.0000,140.9808 A 30.0000,30.0000 0.0000 1 1 145.0000 115.0000 "/><path fill="#00ffff" stroke="white" d="M 145.0000,115.0000 L 150.0000,115.0000 A 35.0000,35.0000 0.0000 1 0 115.0000 150.0000 L 115.0000,145.0000 A 30.0000,30.0000 0.0000 1 1 145.0000 115.0000 "/><path fill="#00ff00" stroke="white" d="M 145.0000,115.0000 L 150.0000,115.0000 A 35.0000,35.0000 0.0000 1 0 97.5000 145.3109 L 100.0000,140.9808 A 30.0000,30.0000 0.0000 1 1 145.0000 115.0000 "/><path fill="#00ff00" stroke="white" d="M 145.0000,115.0000 L 150.0000,115.0000 A 35.0000,35.0000 0.0000 1 0 84.6891 132.5000 L 89.0192,130.0000 A 30.0000,30.0000 0.0000 1 1 145.0000 115.0000 "/><path fill="#00ffff" stroke="white" d="M 145.0000,115.0000 L 150.0000,115.0000 A 35.0000,35.0000 0.0000 0 0 80.0000 115.0000 L 85.0000,115.0000 A 30.0000,30.0000 0.0000 0 1 145.0000 115.0000 "/><path fill="#00ff00" stroke="white" d="M 145.0000,115.0000 L 150.0000,115.0000 A 35.0000,35.0000 0.0000 0 0 84.6891 97.5000 L 89.0192,100.0000 A 30.0000,30.0000 0.0000 0 1 145.0000 115.0000 "/><path fill="#008686" stroke="white" d="M 145.0000,115.0000 L 150.0000,115.0000 A 35.0000,35.0000 0.0000 0 0 97.5000 84.6891 L 100.0000,89.0192 A 30.0000,30.0000 0.0000 0 1 145.0000 115.0000 "/><path fill="#ff00ff" stroke="white" d="M 145.0000,115.0000 L 150.0000,115.0000 A 35.0000,35.0000 0.0000 0 0 115.0000 80.0000 L 115.0000,85.0000 A 30.0000,30.0000 0.0000 0 1 145.0000 115.0000 "/><path fill="#00ff00" stroke="white" d="M 145.0000,115.0000 L 150.0000,115.0000 A 35.0000,35.0000 0.0000 0 0 132.5000 84.6891 L 130.0000,89.0192 A 30.0000,30.0000 0.0000 0 1 145.0000 115.0000 "/><path fill="#008686" stroke="white" d="M 145.0000,115.0000 L 150.0000,115.0000 A 35.0000,35.0000 0.0000 0 0 145.3109 97.5000 L 140.9808,100.0000 A 30.0000,30.0000 0.0000 0 1 145.0000 115.0000 "/><path fill="#0000ff" stroke="white" d="M 140.0000,115.0000 L 145.0000,115.0000 A 30.0000,30.0000 0.0000 1 1 140.9808 100.0000 L 136.6506,102.5000 A 25.0000,25.0000 0.0000 1 0 140.0000 115.0000 "/><path fill="#00ff00" stroke="white" d="M 140.0000,115.0000 L 145.0000,115.0000 A 30.0000,30.0000 0.0000 1 0 140.9808 130.0000 L 136.6506,127.5000 A 25.0000,25.0000 0.0000 1 1 140.0000 115.0000 "/><path fill="#008000" stroke="white" d="M 140.0000,115.0000 L 145.0000,115.0000 A 30.0000,30.0000 0.0000 1 0 130.0000 140.9808 L 127.5000,136.6506 A 25.0000,25.0000 0.0000 1 1 140.0000 115.0000 "/><path fill="#0000ff" stroke="white" d="M 140.0000,115.0000 L 145.0000,115.0000 A 30.0000,30.0000 0.0000 1 0 115.0000 145.0000 L 115.0000,140.0000 A 25.0000,25.0000 0.0000 1 1 140.0000 115.0000 "/><path fill="#00ff00" stroke="white" d="M 140.0000,115.0000 L 145.0000,115.0000 A 30.0000,30.0000 0.0000 1 0 100.0000 140.9808 L 102.5000,136.6506 A 25.0000,25.0000 0.0000 1 1 140.0000 115.0000 "/><path fill="#00ff00" stroke="white" d="M 140.0000,115.0000 L 145.0000,115.0000 A 30.0000,30.0000 0.0000 1 0 89.0192 130.0000 L 93.3494,127.5000 A 25.0000,25.0000 0.0000 1 1 140.0000 115.0000 "/><path fill="#0000ff" stroke="white" d="M 140.0000,115.0000 L 145.0000,115.0000 A 30.0000,30.0000 0.0000 0 0 85.0000 115.0000 L 90.0000,115.0000 A 25.0000,25.0000 0.0000 0 1 140.0000 115.0000 "/><path fill="#00ff00" stroke="white" d="M 140.0000,115.0000 L 145.0000,115.0000 A 30.0000,30.0000 0.0000 0 0 89.0192 100.0000 L 93.3494,102.5000 A 25.0000,25.0000 0.0000 0 1 140.0000 115.0000 "/><path fill="#008000" stroke="white" d="M 140.0000,115.0000 L 145.0000,115.0000 A 30.0000,30.0000 0.0000 0 0 100.0000 89.0192 L 102.5000,93.3494 A 25.0000,25.0000 0.0000 0 1 140.0000 115.0000 "/><path fill="#ffff00" stroke="white" d="M 140.0000,115.0000 L 145.0000,115.0000 A 30.0000,30.0000 0.0000 0 0 115.0000 85.0000 L 115.0000,90.0000 A 25.0000,25.0000 0.0000 0 1 140.0000 115.0000 "/><path fill="#00ff00" stroke="white" d="M 140.0000,115.0000 L 145.0000,115.0000 A 30.0000,30.0000 0.0000 0 0 130.0000 89.0192 L 127.5000,93.3494 A 25.0000,25.0000 0.0000 0 1 140.0000 115.0000 "/><path fill="#0000ff" stroke="white" d="M 140.0000,115.0000 L 145.0000,115.0000 A 30.0000,30.0000 0.0000 0 0 140.9808 100.0000 L 136.6506,102.5000 A 25.0000,25.0000 0.0000 0 1 140.0000 115.0000 "/><path fill="#00ff00" stroke="white" d="M 135.0000,115.0000 L 140.0000,115.0000 A 25.0000,25.0000 0.0000 1 1 136.6506 102.5000 L 132.3205,105.0000 A 20.0000,20.0000 0.0000 1 0 135.0000 115.0000 "/><path fill="#00ff00" stroke="white" d="M 135.0000,115.0000 L 140.0000,115.0000 A 25.0000,25.0000 0.0000 1 0 136.6506 127.5000 L 132.3205,125.0000 A 20.0000,20.0000 0.0000 1 1 135.0000 115.0000 "/><path fill="#008686" stroke="white" d="M 135.0000,115.0000 L 140.0000,115.0000 A 25.0000,25.0000 0.0000 1 0 127.5000 136.6506 L 125.0000,132.3205 A 20.0000,20.0000 0.0000 1 1 135.0000 115.0000 "/><path fill="#ff0000" stroke="white" d="M 135.0000,115.0000 L 140.0000,115.0000 A 25.0000,25.0000 0.0000 1 0 115.0000 140.0000 L 115.0000,135.0000 A 20.0000,20.0000 0.0000 1 1 135.0000 115.0000 "/><path fill="#00ff00" stroke="white" d="M 135.0000,115.0000 L 140.0000,115.0000 A 25.0000,25.0000 0.0000 1 0 102.5000 136.6506 L 105.0000,132.3205 A 20.0000,20.0000 0.0000 1 1 135.0000 115.0000 "/><path fill="#008000" stroke="white" d="M 135.0000,115.0000 L 140.0000,115.0000 A 25.0000,25.0000 0.0000 1 0 93.3494 127.5000 L 97.6795,125.0000 A 20.0000,20.0000 0.0000 1 1 135.0000 115.0000 "/><path fill="#ff0000" stroke="white" d="M 135.0000,115.0000 L 140.0000,115.0000 A 25.0000,25.0000 0.0000 0 0 90.0000 115.0000 L 95.0000,115.0000 A 20.0000,20.0000 0.0000 0 1 135.0000 115.0000 "/><path fill="#00ff00" stroke="white" d="M 135.0000,115.0000 L 140.0000,115.0000 A 25.0000,25.0000 0.0000 0 0 93.3494 102.5000 L 97.6795,105.0000 A 20.0000,20.0000 0.0000 0 1 135.0000 115.0000 "/><path fill="#0000ff" stroke="white" d="M 135.0000,115.0000 L 140.0000,115.0000 A 25.0000,25.0000 0.0000 0 0 102.5000 93.3494 L 105.0000,97.6795 A 20.0000,20.0000 0.0000 0 1 135.0000 115.0000 "/><path fill="#ff0000" stroke="white" d="M 135.0000,115.0000 L 140.0000,115.0000 A 25.0000,25.0000 0.0000 0 0 115.0000 90.0000 L 115.0000,95.0000 A 20.0000,20.0000 0.0000 0 1 135.0000 115.0000 "/><path fill="#00ff00" stroke="white" d="M 135.0000,115.0000 L 140.0000,115.0000 A 25.0000,25.0000 0.0000 0 0 127.5000 93.3494 L 125.0000,97.6795 A 20.0000,20.0000 0.0000 0 1 135.0000 115.0000 "/><path fill="#00ff00" stroke="white" d="M 135.0000,115.0000 L 140.0000,115.0000 A 25.0000,25.0000 0.0000 0 0 136.6506 102.5000 L 132.3205,105.0000 A 20.0000,20.0000 0.0000 0 1 135.0000 115.0000 "/><path fill="#ff0000" stroke="white" d="M 130.0000,115.0000 L 135.0000,115.0000 A 20.0000,20.0000 0.0000 1 1 132.3205 105.0000 L 127.9904,107.5000 A 15.0000,15.0000 0.0000 1 0 130.0000 115.0000 "/><path fill="#00ff00" stroke="white" d="M 130.0000,115.0000 L 135.0000,115.0000 A 20.0000,20.0000 0.0000 1 0 132.3205 125.0000 L 127.9904,122.5000 A 15.0000,15.0000 0.0000 1 1 130.0000 115.0000 "/><path fill="#008000" stroke="white" d="M 130.0000,115.0000 L 135.0000,115.0000 A 20.0000,20.0000 0.0000 1 0 125.0000 132.3205 L 122.5000,127.9904 A 15.0000,15.0000 0.0000 1 1 130.0000 115.0000 "/><path fill="#008686" stroke="white" d="M 130.0000,115.0000 L 135.0000,115.0000 A 20.0000,20.0000 0.0000 1 0 115.0000 135.0000 L 115.0000,130.0000 A 15.0000,15.0000 0.0000 1 1 130.0000 115.0000 "/><path fill="#008686" stroke="white" d="M 130.0000,115.0000 L 135.0000,115.0000 A 20.0000,20.0000 0.0000 1 0 105.0000 132.3205 L 107.5000,127.9904 A 15.0000,15.0000 0.0000 1 1 130.0000 115.0000 "/><path fill="#800080" stroke="white" d="M 130.0000,115.0000 L 135.0000,115.0000 A 20.0000,20.0000 0.0000 1 0 97.6795 125.0000 L 102.0096,122.5000 A 15.0000,15.0000 0.0000 1 1 130.0000 115.0000 "/><path fill="#0000ff" stroke="white" d="M 130.0000,115.0000 L 135.0000,115.0000 A 20.0000,20.0000 0.0000 0 0 95.0000 115.0000 L 100.0000,115.0000 A 15.0000,15.0000 0.0000 0 1 130.0000 115.0000 "/><path fill="#800080" stroke="white" d="M 130.0000,115.0000 L 135.0000,115.0000 A 20.0000,20.0000 0.0000 0 0 97.6795 105.0000 L 102.0096,107.5000 A 15.0000,15.0000 0.0000 0 1 130.0000 115.0000 "/><path fill="#008686" stroke="white" d="M 130.0000,115.0000 L 135.0000,115.0000 A 20.0000,20.0000 0.0000 0 0 105.0000 97.6795 L 107.5000,102.0096 A 15.0000,15.0000 0.0000 0 1 130.0000 115.0000 "/><path fill="#008000" stroke="white" d="M 130.0000,115.0000 L 135.0000,115.0000 A 20.0000,20.0000 0.0000 0 0 115.0000 95.0000 L 115.0000,100.0000 A 15.0000,15.0000 0.0000 0 1 130.0000 115.0000 "/><path fill="#0000ff" stroke="white" d="M 130.0000,115.0000 L 135.0000,115.0000 A 20.0000,20.0000 0.0000 0 0 125.0000 97.6795 L 122.5000,102.0096 A 15.0000,15.0000 0.0000 0 1 130.0000 115.0000 "/><path fill="#008000" stroke="white" d="M 130.0000,115.0000 L 135.0000,115.0000 A 20.0000,20.0000 0.0000 0 0 132.3205 105.0000 L 127.9904,107.5000 A 15.0000,15.0000 0.0000 0 1 130.0000 115.0000 "/><path fill="#00ff00" stroke="white" d="M 125.0000,115.0000 L 130.0000,115.0000 A 15.0000,15.0000 0.0000 1 1 127.9904 107.5000 L 123.6603,110.0000 A 10.0000,10.0000 0.0000 1 0 125.0000 115.0000 "/><path fill="#008000" stroke="white" d="M 125.0000,115.0000 L 130.0000,115.0000 A 15.0000,15.0000 0.0000 1 0 127.9904 122.5000 L 123.6603,120.0000 A 10.0000,10.0000 0.0000 1 1 125.0000 115.0000 "/><path fill="#008000" stroke="white" d="M 125.0000,115.0000 L 130.0000,115.0000 A 15.0000,15.0000 0.0000 1 0 122.5000 127.9904 L 120.0000,123.6602 A 10.0000,10.0000 0.0000 1 1 125.0000 115.0000 "/><path fill="#000080" stroke="white" d="M 125.0000,115.0000 L 130.0000,115.0000 A 15.0000,15.0000 0.0000 1 0 115.0000 130.0000 L 115.0000,125.0000 A 10.0000,10.0000 0.0000 1 1 125.0000 115.0000 "/><path fill="#00ff00" stroke="white" d="M 125.0000,115.0000 L 130.0000,115.0000 A 15.0000,15.0000 0.0000 1 0 107.5000 127.9904 L 110.0000,123.6603 A 10.0000,10.0000 0.0000 1 1 125.0000 115.0000 "/><path fill="#000080" stroke="white" d="M 125.0000,115.0000 L 130.0000,115.0000 A 15.0000,15.0000 0.0000 1 0 102.0096 122.5000 L 106.3397,120.0000 A 10.0000,10.0000 0.0000 1 1 125.0000 115.0000 "/><path fill="#008686" stroke="white" d="M 125.0000,115.0000 L 130.0000,115.0000 A 15.0000,15.0000 0.0000 0 0 100.0000 115.0000 L 105.0000,115.0000 A 10.0000,10.0000 0.0000 0 1 125.0000 115.0000 "/><path fill="#00ffff" stroke="white" d="M 125.0000,115.0000 L 130.0000,115.0000 A 15.0000,15.0000 0.0000 0 0 102.0096 107.5000 L 106.3397,110.0000 A 10.0000,10.0000 0.0000 0 1 125.0000 115.0000 "/><path fill="#0000ff" stroke="white" d="M 125.0000,115.0000 L 130.0000,115.0000 A 15.0000,15.0000 0.0000 0 0 107.5000 102.0096 L 110.0000,106.3397 A 10.0000,10.0000 0.0000 0 1 125.0000 115.0000 "/><path fill="#00ffff" stroke="white" d="M 125.0000,115.0000 L 130.0000,115.0000 A 15.0000,15.0000 0.0000 0 0 115.0000 100.0000 L 115.0000,105.0000 A 10.0000,10.0000 0.0000 0 1 125.0000 115.0000 "/><path fill="#008000" stroke="white" d="M 125.0000,115.0000 L 130.0000,115.0000 A 15.0000,15.0000 0.0000 0 0 122.5000 102.0096 L 120.0000,106.3397 A 10.0000,10.0000 0.0000 0 1 125.0000 115.0000 "/><path fill="#ff00ff" stroke="white" d="M 125.0000,115.0000 L 130.0000,115.0000 A 15.0000,15.0000 0.0000 0 0 127.9904 107.5000 L 123.6603,110.0000 A 10.0000,10.0000 0.0000 0 1 125.0000 115.0000 "/><path fill="#0000ff" stroke="white" d="M 120.0000,115.0000 L 125.0000,115.0000 A 10.0000,10.0000 0.0000 1 1 123.6603 110.0000 L 119.3301,112.5000 A 5.0000,5.0000 0.0000 1 0 120.0000 115.0000 "/><path fill="#ff00ff" stroke="white" d="M 120.0000,115.0000 L 125.0000,115.0000 A 10.0000,10.0000 0.0000 1 0 123.6603 120.0000 L 119.3301,117.5000 A 5.0000,5.0000 0.0000 1 1 120.0000 115.0000 "/><path fill="#00ff00" stroke="white" d="M 120.0000,115.0000 L 125.0000,115.0000 A 10.0000,10.0000 0.0000 1 0 120.0000 123.6602 L 117.5000,119.3301 A 5.0000,5.0000 0.0000 1 1 120.0000 115.0000 "/><path fill="#ff00ff" stroke="white" d="M 120.0000,115.0000 L 125.0000,115.0000 A 10.0000,10.0000 0.0000 1 0 115.0000 125.0000 L 115.0000,120.0000 A 5.0000,5.0000 0.0000 1 1 120.0000 115.0000 "/><path fill="#008000" stroke="white" d="M 120.0000,115.0000 L 125.0000,115.0000 A 10.0000,10.0000 0.0000 1 0 110.0000 123.6603 L 112.5000,119.3301 A 5.0000,5.0000 0.0000 1 1 120.0000 115.0000 "/><path fill="#0000ff" stroke="white" d="M 120.0000,115.0000 L 125.0000,115.0000 A 10.0000,10.0000 0.0000 1 0 106.3397 120.0000 L 110.6699,117.5000 A 5.0000,5.0000 0.0000 1 1 120.0000 115.0000 "/><path fill="#00ff00" stroke="white" d="M 120.0000,115.0000 L 125.0000,115.0000 A 10.0000,10.0000 0.0000 0 0 105.0000 115.0000 L 110.0000,115.0000 A 5.0000,5.0000 0.0000 0 1 120.0000 115.0000 "/><path fill="#0000ff" stroke="white" d="M 120.0000,115.0000 L 125.0000,115.0000 A 10.0000,10.0000 0.0000 0 0 106.3397 110.0000 L 110.6699,112.5000 A 5.0000,5.0000 0.0000 0 1 120.0000 115.0000 "/><path fill="#008686" stroke="white" d="M 120.0000,115.0000 L 125.0000,115.0000 A 10.0000,10.0000 0.0000 0 0 110.0000 106.3397 L 112.5000,110.6699 A 5.0000,5.0000 0.0000 0 1 120.0000 115.0000 "/><path fill="#ffff00" stroke="white" d="M 120.0000,115.0000 L 125.0000,115.0000 A 10.0000,10.0000 0.0000 0 0 115.0000 105.0000 L 115.0000,110.0000 A 5.0000,5.0000 0.0000 0 1 120.0000 115.0000 "/><path fill="#0000ff" stroke="white" d="M 120.0000,115.0000 L 125.0000,115.0000 A 10.0000,10.0000 0.0000 0 0 120.0000 106.3397 L 117.5000,110.6699 A 5.0000,5.0000 0.0000 0 1 120.0000 115.0000 "/><path fill="#ffff00" stroke="white" d="M 120.0000,115.0000 L 125.0000,115.0000 A 10.0000,10.0000 0.0000 0 0 123.6603 110.0000 L 119.3301,112.5000 A 5.0000,5.0000 0.0000 0 1 120.0000 115.0000 "/><path fill="#008686" stroke="white" d="M 115.0000,115.0000 L 120.0000,115.0000 A 5.0000,5.0000 0.0000 1 1 119.3301 112.5000 L 115.0000,115.0000 A 0.0000,0.0000 0.0000 1 0 115.0000 115.0000 "/><path fill="#00ff00" stroke="white" d="M 115.0000,115.0000 L 120.0000,115.0000 A 5.0000,5.0000 0.0000 1 0 119.3301 117.5000 L 115.0000,115.0000 A 0.0000,0.0000 0.0000 1 1 115.0000 115.0000 "/><path fill="#008000" stroke="white" d="M 115.0000,115.0000 L 120.0000,115.0000 A 5.0000,5.0000 0.0000 1 0 117.5000 119.3301 L 115.0000,115.0000 A 0.0000,0.0000 0.0000 1 1 115.0000 115.0000 "/><path fill="#00ff00" stroke="white" d="M 115.0000,115.0000 L 120.0000,115.0000 A 5.0000,5.0000 0.0000 1 0 115.0000 120.0000 L 115.0000,115.0000 A 0.0000,0.0000 0.0000 1 1 115.0000 115.0000 "/><path fill="#0000ff" stroke="white" d="M 115.0000,115.0000 L 120.0000,115.0000 A 5.0000,5.0000 0.0000 1 0 112.5000 119.3301 L 115.0000,115.0000 A 0.0000,0.0000 0.0000 1 1 115.0000 115.0000 "/><path fill="#00ff00" stroke="white" d="M 115.0000,115.0000 L 120.0000,115.0000 A 5.0000,5.0000 0.0000 1 0 110.6699 117.5000 L 115.0000,115.0000 A 0.0000,0.0000 0.0000 1 1 115.0000 115.0000 "/><path fill="#00ff00" stroke="white" d="M 115.0000,115.0000 L 120.0000,115.0000 A 5.0000,5.0000 0.0000 0 0 110.0000 115.0000 L 115.0000,115.0000 A 0.0000,0.0000 0.0000 0 1 115.0000 115.0000 "/><path fill="#00ff00" stroke="white" d="M 115.0000,115.0000 L 120.0000,115.0000 A 5.0000,5.0000 0.0000 0 0 110.6699 112.5000 L 115.0000,115.0000 A 0.0000,0.0000 0.0000 0 1 115.0000 115.0000 "/><path fill="#008000" stroke="white" d="M 115.0000,115.0000 L 120.0000,115.0000 A 5.0000,5.0000 0.0000 0 0 112.5000 110.6699 L 115.0000,115.0000 A 0.0000,0.0000 0.0000 0 1 115.0000 115.0000 "/><path fill="#00ffff" stroke="white" d="M 115.0000,115.0000 L 120.0000,115.0000 A 5.0000,5.0000 0.0000 0 0 115.0000 110.0000 L 115.0000,115.0000 A 0.0000,0.0000 0.0000 0 1 115.0000 115.0000 "/><path fill="#0000ff" stroke="white" d="M 115.0000,115.0000 L 120.0000,115.0000 A 5.0000,5.0000 0.0000 0 0 117.5000 110.6699 L 115.0000,115.0000 A 0.0000,0.0000 0.0000 0 1 115.0000 115.0000 "/><path fill="#ffff00" stroke="white" d="M 115.0000,115.0000 L 120.0000,115.0000 A 5.0000,5.0000 0.0000 0 0 119.3301 112.5000 L 115.0000,115.0000 A 0.0000,0.0000 0.0000 0 1 115.0000 115.0000 "/></svg>